<?xml version="1.0" encoding="UTF-8"?>
<svg xmlns="http://www.w3.org/2000/svg" xmlns:xlink="http://www.w3.org/1999/xlink" width="1000pt" height="1000pt" viewBox="0 0 1000 1000" version="1.1">
<g id="surface154471">
<path style=" stroke:none;fill-rule:nonzero;fill:rgb(40%,40%,40%);fill-opacity:1;" d="M 40 1000 C 17.910156 1000 0 982.089844 0 960 L 0 40 C 0 17.910156 17.910156 0 40 0 L 960 0 C 982.089844 0 1000 17.910156 1000 40 L 1000 960 C 1000 982.089844 982.089844 1000 960 1000 Z M 940 980 C 962.089844 980 980 962.089844 980 940 L 980 60 C 980 37.910156 962.089844 20 940 20 L 60 20 C 37.910156 20 20 37.910156 20 60 L 20 940 C 20 962.089844 37.910156 980 60 980 Z M 940 980 "/>
<path style=" stroke:none;fill-rule:nonzero;fill:rgb(81.176471%,89.803922%,89.803922%);fill-opacity:1;" d="M 758.355469 244.214844 L 758.355469 407.054688 L 789.054688 424.78125 L 789.054688 261.925781 Z M 758.355469 244.214844 "/>
<path style=" stroke:none;fill-rule:nonzero;fill:rgb(74.117647%,85.490196%,85.882353%);fill-opacity:1;" d="M 789.054688 424.78125 L 789.054688 261.925781 L 758.355469 244.214844 "/>
<path style=" stroke:none;fill-rule:nonzero;fill:rgb(55.686275%,74.901961%,74.901961%);fill-opacity:1;" d="M 819.75 244.214844 L 819.75 407.054688 L 789.054688 424.78125 L 789.054688 261.925781 Z M 819.75 244.214844 "/>
<path style=" stroke:none;fill-rule:nonzero;fill:rgb(50.196078%,71.764706%,70.196078%);fill-opacity:1;" d="M 789.054688 424.78125 L 789.054688 261.925781 L 819.75 244.214844 "/>
<path style=" stroke:none;fill-rule:nonzero;fill:rgb(45.882353%,20.392157%,42.352941%);fill-opacity:1;" d="M 789.054688 191.050781 L 789.054688 261.925781 L 819.75 244.214844 Z M 789.054688 191.050781 "/>
<path style=" stroke:none;fill-rule:nonzero;fill:rgb(66.666667%,32.54902%,65.098039%);fill-opacity:1;" d="M 789.054688 191.050781 L 789.054688 261.925781 L 758.355469 244.214844 Z M 789.054688 191.050781 "/>
<path style=" stroke:none;fill-rule:nonzero;fill:rgb(45.098039%,65.882353%,65.490196%);fill-opacity:1;" d="M 764.234375 276.722656 L 764.234375 266 C 764.234375 260.535156 768.105469 258.3125 772.832031 261.039062 C 777.558594 263.773438 781.433594 270.472656 781.433594 275.933594 L 781.433594 286.648438 Z M 764.234375 276.722656 "/>
<path style=" stroke:none;fill-rule:nonzero;fill:rgb(47.843137%,84.705882%,92.941176%);fill-opacity:1;" d="M 772.832031 261.039062 C 777.558594 263.773438 781.433594 270.472656 781.433594 275.933594 L 781.433594 284.605469 L 765.789062 275.566406 L 765.789062 264.859375 C 765.789062 262.878906 766.304688 261.339844 767.175781 260.292969 C 768.699219 259.628906 770.664062 259.789062 772.832031 261.039062 Z M 772.832031 261.039062 "/>
<path style=" stroke:none;fill-rule:nonzero;fill:rgb(35.686275%,75.686275%,86.666667%);fill-opacity:1;" d="M 765.796875 264.859375 C 765.796875 262.878906 766.3125 261.339844 767.183594 260.292969 C 768.699219 259.628906 770.664062 259.78125 772.832031 261.039062 C 777.558594 263.773438 781.433594 270.472656 781.433594 275.933594 L 781.433594 284.605469 "/>
<path style=" stroke:none;fill-rule:nonzero;fill:rgb(81.176471%,89.803922%,89.803922%);fill-opacity:1;" d="M 565.855469 175.335938 L 565.855469 338.1875 L 596.554688 355.90625 L 596.554688 193.058594 Z M 565.855469 175.335938 "/>
<path style=" stroke:none;fill-rule:nonzero;fill:rgb(74.117647%,85.490196%,85.882353%);fill-opacity:1;" d="M 596.554688 355.90625 L 596.554688 193.058594 L 565.855469 175.335938 "/>
<path style=" stroke:none;fill-rule:nonzero;fill:rgb(55.686275%,74.901961%,74.901961%);fill-opacity:1;" d="M 627.25 175.335938 L 627.25 338.1875 L 596.554688 355.90625 L 596.554688 193.058594 Z M 627.25 175.335938 "/>
<path style=" stroke:none;fill-rule:nonzero;fill:rgb(50.196078%,71.764706%,70.196078%);fill-opacity:1;" d="M 596.554688 355.90625 L 596.554688 193.058594 L 627.25 175.335938 "/>
<path style=" stroke:none;fill-rule:nonzero;fill:rgb(45.882353%,20.392157%,42.352941%);fill-opacity:1;" d="M 596.554688 122.175781 L 596.554688 193.058594 L 627.25 175.335938 Z M 596.554688 122.175781 "/>
<path style=" stroke:none;fill-rule:nonzero;fill:rgb(66.666667%,32.54902%,65.098039%);fill-opacity:1;" d="M 596.554688 122.175781 L 596.554688 193.058594 L 565.855469 175.335938 Z M 596.554688 122.175781 "/>
<path style=" stroke:none;fill-rule:nonzero;fill:rgb(45.098039%,65.882353%,65.490196%);fill-opacity:1;" d="M 571.734375 207.847656 L 571.734375 197.128906 C 571.734375 191.667969 575.605469 189.4375 580.332031 192.164062 C 585.066406 194.90625 588.9375 201.597656 588.9375 207.066406 L 588.9375 217.777344 Z M 571.734375 207.847656 "/>
<path style=" stroke:none;fill-rule:nonzero;fill:rgb(47.843137%,84.705882%,92.941176%);fill-opacity:1;" d="M 580.332031 192.164062 C 585.066406 194.90625 588.9375 201.597656 588.9375 207.066406 L 588.9375 215.738281 L 573.296875 206.699219 L 573.296875 195.984375 C 573.296875 194.007812 573.8125 192.464844 574.6875 191.417969 C 576.199219 190.753906 578.171875 190.921875 580.332031 192.164062 Z M 580.332031 192.164062 "/>
<path style=" stroke:none;fill-rule:nonzero;fill:rgb(35.686275%,75.686275%,86.666667%);fill-opacity:1;" d="M 573.296875 195.984375 C 573.296875 194.007812 573.8125 192.464844 574.6875 191.417969 C 576.199219 190.753906 578.171875 190.914062 580.339844 192.164062 C 585.070312 194.90625 588.945312 201.597656 588.945312 207.066406 L 588.945312 215.738281 "/>
<path style=" stroke:none;fill-rule:nonzero;fill:rgb(74.117647%,85.490196%,85.882353%);fill-opacity:1;" d="M 311.320312 666.371094 L 565.53125 813.132812 L 565.53125 575.605469 L 419.8125 408.121094 L 311.320312 428.816406 Z M 311.320312 666.371094 "/>
<path style=" stroke:none;fill-rule:nonzero;fill:rgb(55.686275%,74.901961%,74.901961%);fill-opacity:1;" d="M 565.53125 575.605469 L 819.75 428.816406 L 819.75 666.371094 L 565.53125 813.132812 Z M 565.53125 575.605469 "/>
<path style=" stroke:none;fill-rule:nonzero;fill:rgb(74.117647%,85.490196%,85.882353%);fill-opacity:1;" d="M 311.320312 644.324219 L 565.53125 791.113281 L 565.53125 553.558594 L 419.8125 386.074219 L 311.320312 406.769531 Z M 311.320312 644.324219 "/>
<path style=" stroke:none;fill-rule:nonzero;fill:rgb(55.686275%,74.901961%,74.901961%);fill-opacity:1;" d="M 565.53125 553.558594 L 419.8125 386.074219 L 311.320312 406.769531 M 565.53125 553.558594 L 819.75 406.769531 L 819.75 644.324219 L 565.53125 791.113281 Z M 565.53125 553.558594 "/>
<path style=" stroke:none;fill-rule:nonzero;fill:rgb(45.490196%,66.666667%,64.705882%);fill-opacity:1;" d="M 565.53125 791.113281 L 565.53125 553.558594 L 819.75 406.769531 "/>
<path style=" stroke:none;fill-rule:nonzero;fill:rgb(45.882353%,20.392157%,42.352941%);fill-opacity:1;" d="M 419.8125 386.074219 L 674.484375 239.046875 L 819.75 406.769531 L 565.53125 553.558594 Z M 419.8125 386.074219 "/>
<path style=" stroke:none;fill-rule:nonzero;fill:rgb(37.647059%,16.862745%,33.72549%);fill-opacity:1;" d="M 565.53125 553.558594 L 419.8125 386.074219 L 674.484375 239.046875 "/>
<path style=" stroke:none;fill-rule:nonzero;fill:rgb(66.666667%,32.54902%,65.098039%);fill-opacity:1;" d="M 674.484375 239.046875 L 565.53125 260.011719 L 311.320312 406.769531 L 419.8125 386.074219 Z M 674.484375 239.046875 "/>
<path style=" stroke:none;fill-rule:nonzero;fill:rgb(57.647059%,26.666667%,54.901961%);fill-opacity:1;" d="M 311.320312 406.769531 L 419.8125 386.074219 L 674.484375 239.046875 "/>
<path style=" stroke:none;fill-rule:nonzero;fill:rgb(40.784314%,16.078431%,38.431373%);fill-opacity:1;" d="M 468.511719 442.058594 L 723.03125 295.101562 L 705.0625 274.347656 L 450.488281 421.339844 Z M 507.148438 486.445312 L 761.542969 339.570312 L 743.566406 318.816406 L 489.117188 465.726562 Z M 545.773438 530.84375 L 800.054688 384.03125 L 782.078125 363.277344 L 527.742188 510.125 Z M 545.773438 530.84375 "/>
<path style=" stroke:none;fill-rule:nonzero;fill:rgb(55.686275%,74.901961%,74.901961%);fill-opacity:1;" d="M 173.433594 782.195312 L 343.425781 880.332031 L 343.425781 721.492188 L 245.988281 609.5 L 173.433594 623.335938 Z M 173.433594 782.195312 "/>
<path style=" stroke:none;fill-rule:nonzero;fill:rgb(45.098039%,65.882353%,65.490196%);fill-opacity:1;" d="M 343.425781 721.492188 L 513.425781 623.335938 L 513.425781 782.195312 L 343.425781 880.332031 Z M 343.425781 721.492188 "/>
<path style=" stroke:none;fill-rule:nonzero;fill:rgb(74.117647%,85.490196%,85.882353%);fill-opacity:1;" d="M 173.433594 767.441406 L 343.425781 865.605469 L 343.425781 706.753906 L 245.988281 594.75 L 173.433594 608.589844 Z M 173.433594 767.441406 "/>
<path style=" stroke:none;fill-rule:nonzero;fill:rgb(55.686275%,74.901961%,74.901961%);fill-opacity:1;" d="M 343.425781 706.753906 L 245.988281 594.75 L 173.433594 608.59375 M 343.425781 706.753906 L 513.425781 608.59375 L 513.425781 767.441406 L 343.425781 865.605469 Z M 343.425781 706.753906 "/>
<path style=" stroke:none;fill-rule:nonzero;fill:rgb(45.490196%,66.666667%,64.705882%);fill-opacity:1;" d="M 343.425781 865.605469 L 343.425781 706.753906 L 513.425781 608.59375 "/>
<path style=" stroke:none;fill-rule:nonzero;fill:rgb(45.882353%,20.392157%,42.352941%);fill-opacity:1;" d="M 245.988281 594.75 L 416.289062 496.4375 L 513.425781 608.59375 L 343.425781 706.753906 Z M 245.988281 594.75 "/>
<path style=" stroke:none;fill-rule:nonzero;fill:rgb(37.647059%,16.862745%,33.72549%);fill-opacity:1;" d="M 343.425781 706.753906 L 245.988281 594.75 L 416.289062 496.4375 "/>
<path style=" stroke:none;fill-rule:nonzero;fill:rgb(66.666667%,32.54902%,65.098039%);fill-opacity:1;" d="M 416.289062 496.4375 L 343.425781 510.453125 L 173.433594 608.59375 L 245.988281 594.75 Z M 416.289062 496.4375 "/>
<path style=" stroke:none;fill-rule:nonzero;fill:rgb(57.647059%,26.666667%,54.901961%);fill-opacity:1;" d="M 173.433594 608.59375 L 245.988281 594.75 L 416.289062 496.4375 "/>
<path style=" stroke:none;fill-rule:nonzero;fill:rgb(29.803922%,13.333333%,27.45098%);fill-opacity:1;" d="M 250.445312 599.886719 L 297.519531 653.984375 L 297.519531 565.011719 L 250.445312 592.179688 Z M 250.445312 599.886719 "/>
<path style=" stroke:none;fill-rule:nonzero;fill:rgb(81.176471%,89.803922%,89.803922%);fill-opacity:1;" d="M 250.445312 457.582031 L 250.445312 582.449219 L 273.984375 596.035156 L 273.984375 471.171875 Z M 250.445312 457.582031 "/>
<path style=" stroke:none;fill-rule:nonzero;fill:rgb(74.117647%,85.490196%,85.882353%);fill-opacity:1;" d="M 273.984375 596.035156 L 273.984375 471.171875 L 250.445312 457.582031 "/>
<path style=" stroke:none;fill-rule:nonzero;fill:rgb(55.686275%,74.901961%,74.901961%);fill-opacity:1;" d="M 297.519531 457.582031 L 297.519531 582.449219 L 273.984375 596.035156 L 273.984375 471.171875 Z M 297.519531 457.582031 "/>
<path style=" stroke:none;fill-rule:nonzero;fill:rgb(50.196078%,71.764706%,70.196078%);fill-opacity:1;" d="M 273.984375 596.035156 L 273.984375 471.171875 L 297.519531 457.582031 "/>
<path style=" stroke:none;fill-rule:nonzero;fill:rgb(45.882353%,20.392157%,42.352941%);fill-opacity:1;" d="M 273.984375 416.816406 L 273.984375 471.171875 L 297.519531 457.582031 Z M 273.984375 416.816406 "/>
<path style=" stroke:none;fill-rule:nonzero;fill:rgb(66.666667%,32.54902%,65.098039%);fill-opacity:1;" d="M 273.984375 416.816406 L 273.984375 471.171875 L 250.445312 457.582031 Z M 273.984375 416.816406 "/>
<path style=" stroke:none;fill-rule:nonzero;fill:rgb(31.764706%,55.686275%,54.509804%);fill-opacity:1;" d="M 256.800781 639.007812 L 256.800781 624.3125 L 244.085938 616.96875 L 244.085938 631.664062 L 231.363281 624.3125 L 231.363281 639.007812 L 244.085938 646.34375 L 244.085938 675.722656 L 256.800781 683.074219 L 256.800781 653.691406 L 269.53125 661.046875 L 269.53125 646.34375 Z M 256.800781 639.007812 "/>
<path style=" stroke:none;fill-rule:nonzero;fill:rgb(35.686275%,75.686275%,86.666667%);fill-opacity:1;" d="M 256.800781 639.007812 L 256.800781 624.3125 L 245.414062 617.738281 L 245.414062 630.839844 L 244.085938 631.664062 L 232.695312 625.074219 L 232.695312 638.183594 L 245.417969 645.527344 L 245.414062 674.90625 L 256.800781 681.488281 L 256.800781 653.691406 L 258.136719 652.882812 L 269.53125 659.453125 L 269.53125 646.34375 Z M 256.800781 639.007812 "/>
<path style=" stroke:none;fill-rule:nonzero;fill:rgb(30.588235%,67.058824%,80%);fill-opacity:1;" d="M 269.53125 646.34375 L 256.800781 639.007812 L 256.800781 624.3125 L 245.414062 617.738281 L 245.414062 630.839844 L 244.085938 631.664062 L 232.695312 625.074219 L 232.695312 625.609375 L 244.726562 645.132812 L 245.417969 645.527344 L 245.417969 646.257812 L 256.800781 664.730469 L 256.800781 653.691406 L 258.136719 652.882812 L 269.53125 659.453125 Z M 269.53125 646.34375 "/>
<path style=" stroke:none;fill-rule:nonzero;fill:rgb(40.784314%,16.078431%,38.431373%);fill-opacity:1;" d="M 278.550781 632.195312 L 448.75 533.917969 L 436.734375 520.046875 L 266.5 618.335938 Z M 304.386719 661.875 L 474.503906 563.652344 L 462.488281 549.777344 L 292.328125 648.023438 Z M 330.21875 691.566406 L 500.257812 593.386719 L 488.234375 579.519531 L 318.160156 677.707031 Z M 330.21875 691.566406 "/>
<path style=" stroke:none;fill-rule:nonzero;fill:rgb(45.098039%,65.882353%,65.490196%);fill-opacity:1;" d="M 370.894531 812.652344 L 370.894531 843.40625 L 397.273438 828.179688 L 397.273438 797.4375 Z M 397.273438 766.121094 L 370.894531 781.351562 L 370.894531 808.519531 L 397.273438 793.292969 Z M 370.894531 777.210938 L 397.273438 761.980469 L 397.273438 734.8125 L 370.894531 750.035156 Z M 397.273438 730.671875 L 397.273438 714.246094 C 397.273438 705.867188 391.339844 702.449219 384.089844 706.628906 C 376.832031 710.824219 370.898438 721.09375 370.898438 729.476562 L 370.898438 745.894531 Z M 397.273438 730.671875 "/>
<path style=" stroke:none;fill-rule:nonzero;fill:rgb(35.686275%,75.686275%,86.666667%);fill-opacity:1;" d="M 394.882812 826.414062 L 394.882812 798.804688 L 370.894531 812.652344 L 370.894531 840.253906 Z M 394.882812 826.414062 "/>
<path style=" stroke:none;fill-rule:nonzero;fill:rgb(35.686275%,75.686275%,86.666667%);fill-opacity:1;" d="M 394.882812 826.414062 L 394.882812 798.804688 L 370.894531 812.652344 L 370.894531 840.253906 Z M 394.882812 826.414062 "/>
<path style=" stroke:none;fill-rule:nonzero;fill:rgb(47.843137%,84.705882%,92.941176%);fill-opacity:1;" d="M 394.882812 826.414062 L 394.882812 798.804688 L 370.894531 812.652344 L 370.894531 840.253906 Z M 394.882812 826.414062 "/>
<path style=" stroke:none;fill-rule:nonzero;fill:rgb(35.686275%,75.686275%,86.666667%);fill-opacity:1;" d="M 394.882812 798.804688 L 370.894531 812.652344 L 370.894531 840.253906 "/>
<path style=" stroke:none;fill-rule:nonzero;fill:rgb(47.843137%,84.705882%,92.941176%);fill-opacity:1;" d="M 394.882812 791.519531 L 394.882812 767.496094 L 370.894531 781.351562 L 370.894531 805.375 Z M 394.882812 791.519531 "/>
<path style=" stroke:none;fill-rule:nonzero;fill:rgb(35.686275%,75.686275%,86.666667%);fill-opacity:1;" d="M 394.882812 767.496094 L 370.894531 781.351562 L 370.894531 805.375 "/>
<path style=" stroke:none;fill-rule:nonzero;fill:rgb(47.843137%,84.705882%,92.941176%);fill-opacity:1;" d="M 394.882812 760.210938 L 394.882812 736.1875 L 370.894531 750.035156 L 370.894531 774.078125 Z M 394.882812 760.210938 "/>
<path style=" stroke:none;fill-rule:nonzero;fill:rgb(35.686275%,75.686275%,86.666667%);fill-opacity:1;" d="M 394.882812 736.1875 L 370.894531 750.035156 L 370.894531 774.078125 "/>
<path style=" stroke:none;fill-rule:nonzero;fill:rgb(47.843137%,84.705882%,92.941176%);fill-opacity:1;" d="M 384.089844 706.625 C 376.832031 710.816406 370.898438 721.089844 370.898438 729.46875 L 370.898438 742.75 L 394.886719 728.894531 L 394.886719 712.476562 C 394.886719 709.4375 394.085938 707.085938 392.753906 705.46875 C 390.425781 704.457031 387.414062 704.699219 384.089844 706.625 Z M 384.089844 706.625 "/>
<path style=" stroke:none;fill-rule:nonzero;fill:rgb(35.686275%,75.686275%,86.666667%);fill-opacity:1;" d="M 394.882812 712.476562 C 394.882812 709.4375 394.082031 707.085938 392.75 705.46875 C 390.425781 704.449219 387.414062 704.695312 384.089844 706.617188 C 376.832031 710.8125 370.898438 721.082031 370.898438 729.464844 L 370.898438 742.742188 "/>
<path style=" stroke:none;fill-rule:nonzero;fill:rgb(45.098039%,65.882353%,65.490196%);fill-opacity:1;" d="M 415.238281 786.949219 L 415.238281 817.699219 L 441.613281 802.464844 L 441.613281 771.714844 Z M 441.613281 740.410156 L 415.238281 755.632812 L 415.238281 782.808594 L 441.613281 767.578125 Z M 415.238281 751.496094 L 441.613281 736.257812 L 441.613281 709.09375 L 415.238281 724.328125 Z M 441.613281 704.953125 L 441.613281 688.535156 C 441.613281 680.15625 435.679688 676.730469 428.429688 680.917969 C 421.171875 685.117188 415.238281 695.382812 415.238281 703.765625 L 415.238281 720.195312 Z M 441.613281 704.953125 "/>
<path style=" stroke:none;fill-rule:nonzero;fill:rgb(35.686275%,75.686275%,86.666667%);fill-opacity:1;" d="M 439.226562 800.699219 L 439.226562 773.097656 L 415.238281 786.949219 L 415.238281 814.554688 Z M 439.226562 800.699219 "/>
<path style=" stroke:none;fill-rule:nonzero;fill:rgb(35.686275%,75.686275%,86.666667%);fill-opacity:1;" d="M 439.226562 800.699219 L 439.226562 773.097656 L 415.238281 786.949219 L 415.238281 814.554688 Z M 439.226562 800.699219 "/>
<path style=" stroke:none;fill-rule:nonzero;fill:rgb(47.843137%,84.705882%,92.941176%);fill-opacity:1;" d="M 439.226562 800.699219 L 439.226562 773.097656 L 415.238281 786.949219 L 415.238281 814.554688 Z M 439.226562 800.699219 "/>
<path style=" stroke:none;fill-rule:nonzero;fill:rgb(35.686275%,75.686275%,86.666667%);fill-opacity:1;" d="M 439.226562 773.097656 L 415.238281 786.949219 L 415.238281 814.554688 "/>
<path style=" stroke:none;fill-rule:nonzero;fill:rgb(47.843137%,84.705882%,92.941176%);fill-opacity:1;" d="M 439.226562 765.800781 L 439.226562 741.796875 L 415.238281 755.632812 L 415.238281 779.667969 Z M 439.226562 765.800781 "/>
<path style=" stroke:none;fill-rule:nonzero;fill:rgb(35.686275%,75.686275%,86.666667%);fill-opacity:1;" d="M 439.226562 741.796875 L 415.238281 755.632812 L 415.238281 779.667969 "/>
<path style=" stroke:none;fill-rule:nonzero;fill:rgb(47.843137%,84.705882%,92.941176%);fill-opacity:1;" d="M 439.226562 734.503906 L 439.226562 710.46875 L 415.238281 724.328125 L 415.238281 748.351562 Z M 439.226562 734.503906 "/>
<path style=" stroke:none;fill-rule:nonzero;fill:rgb(35.686275%,75.686275%,86.666667%);fill-opacity:1;" d="M 439.226562 710.46875 L 415.238281 724.328125 L 415.238281 748.351562 "/>
<path style=" stroke:none;fill-rule:nonzero;fill:rgb(47.843137%,84.705882%,92.941176%);fill-opacity:1;" d="M 428.429688 680.914062 C 421.171875 685.113281 415.238281 695.375 415.238281 703.757812 L 415.238281 717.039062 L 439.226562 703.183594 L 439.226562 686.765625 C 439.226562 683.71875 438.425781 681.375 437.09375 679.761719 C 434.765625 678.746094 431.753906 678.992188 428.429688 680.914062 Z M 428.429688 680.914062 "/>
<path style=" stroke:none;fill-rule:nonzero;fill:rgb(35.686275%,75.686275%,86.666667%);fill-opacity:1;" d="M 439.226562 686.765625 C 439.226562 683.71875 438.425781 681.375 437.09375 679.761719 C 434.773438 678.738281 431.757812 678.988281 428.433594 680.90625 C 421.179688 685.105469 415.246094 695.371094 415.246094 703.753906 L 415.246094 717.03125 "/>
<path style=" stroke:none;fill-rule:nonzero;fill:rgb(45.098039%,65.882353%,65.490196%);fill-opacity:1;" d="M 459.585938 761.230469 L 459.585938 791.980469 L 485.953125 776.761719 L 485.953125 746.007812 Z M 485.953125 714.691406 L 459.585938 729.921875 L 459.585938 757.089844 L 485.953125 741.867188 Z M 459.585938 725.785156 L 485.953125 710.550781 L 485.953125 683.386719 L 459.585938 698.609375 Z M 485.953125 679.238281 L 485.953125 662.816406 C 485.953125 654.429688 480.019531 651.019531 472.769531 655.195312 C 465.515625 659.394531 459.578125 669.664062 459.578125 678.039062 L 459.578125 694.464844 Z M 485.953125 679.238281 "/>
<path style=" stroke:none;fill-rule:nonzero;fill:rgb(35.686275%,75.686275%,86.666667%);fill-opacity:1;" d="M 483.566406 774.988281 L 483.566406 747.386719 L 459.585938 761.230469 L 459.585938 788.835938 Z M 483.566406 774.988281 "/>
<path style=" stroke:none;fill-rule:nonzero;fill:rgb(35.686275%,75.686275%,86.666667%);fill-opacity:1;" d="M 483.566406 774.988281 L 483.566406 747.386719 L 459.585938 761.230469 L 459.585938 788.835938 Z M 483.566406 774.988281 "/>
<path style=" stroke:none;fill-rule:nonzero;fill:rgb(47.843137%,84.705882%,92.941176%);fill-opacity:1;" d="M 483.566406 774.988281 L 483.566406 747.386719 L 459.585938 761.230469 L 459.585938 788.835938 Z M 483.566406 774.988281 "/>
<path style=" stroke:none;fill-rule:nonzero;fill:rgb(35.686275%,75.686275%,86.666667%);fill-opacity:1;" d="M 483.566406 747.386719 L 459.585938 761.230469 L 459.585938 788.835938 "/>
<path style=" stroke:none;fill-rule:nonzero;fill:rgb(47.843137%,84.705882%,92.941176%);fill-opacity:1;" d="M 483.566406 740.085938 L 483.566406 716.078125 L 459.585938 729.921875 L 459.585938 753.945312 Z M 483.566406 740.085938 "/>
<path style=" stroke:none;fill-rule:nonzero;fill:rgb(35.686275%,75.686275%,86.666667%);fill-opacity:1;" d="M 483.566406 716.078125 L 459.585938 729.921875 L 459.585938 753.945312 "/>
<path style=" stroke:none;fill-rule:nonzero;fill:rgb(47.843137%,84.705882%,92.941176%);fill-opacity:1;" d="M 483.566406 708.785156 L 483.566406 684.769531 L 459.585938 698.609375 L 459.585938 722.640625 Z M 483.566406 708.785156 "/>
<path style=" stroke:none;fill-rule:nonzero;fill:rgb(35.686275%,75.686275%,86.666667%);fill-opacity:1;" d="M 483.566406 684.769531 L 459.585938 698.609375 L 459.585938 722.640625 "/>
<path style=" stroke:none;fill-rule:nonzero;fill:rgb(47.843137%,84.705882%,92.941176%);fill-opacity:1;" d="M 472.777344 655.195312 C 465.519531 659.394531 459.585938 669.664062 459.585938 678.039062 L 459.585938 691.320312 L 483.566406 677.472656 L 483.566406 661.046875 C 483.566406 658.015625 482.773438 655.664062 481.433594 654.046875 C 479.105469 653.019531 476.09375 653.277344 472.777344 655.195312 Z M 472.777344 655.195312 "/>
<path style=" stroke:none;fill-rule:nonzero;fill:rgb(35.686275%,75.686275%,86.666667%);fill-opacity:1;" d="M 483.566406 661.050781 C 483.566406 658.019531 482.773438 655.667969 481.433594 654.050781 C 479.113281 653.019531 476.097656 653.277344 472.777344 655.195312 C 465.519531 659.394531 459.585938 669.664062 459.585938 678.039062 L 459.585938 691.320312 "/>
<path style=" stroke:none;fill-rule:nonzero;fill:rgb(50.196078%,71.764706%,70.196078%);fill-opacity:1;" d="M 288.457031 698.253906 C 293.4375 701.132812 297.519531 708.1875 297.519531 713.941406 L 297.519531 830.675781 L 279.40625 820.222656 L 279.40625 703.480469 C 279.40625 697.726562 283.484375 695.382812 288.457031 698.253906 Z M 288.457031 698.253906 "/>
<path style=" stroke:none;fill-rule:nonzero;fill:rgb(47.843137%,84.705882%,92.941176%);fill-opacity:1;" d="M 288.457031 698.253906 C 286.253906 696.988281 284.261719 696.785156 282.6875 697.398438 C 281.792969 698.503906 281.246094 700.101562 281.246094 702.171875 L 281.246094 818.910156 L 297.511719 828.289062 L 297.511719 713.941406 C 297.519531 708.1875 293.441406 701.132812 288.457031 698.253906 Z M 288.457031 698.253906 "/>
<path style=" stroke:none;fill-rule:nonzero;fill:rgb(38.039216%,80%,89.803922%);fill-opacity:1;" d="M 297.519531 828.289062 L 297.519531 713.941406 C 297.519531 708.183594 293.441406 701.132812 288.457031 698.253906 C 286.253906 696.988281 284.261719 696.785156 282.6875 697.398438 C 281.792969 698.503906 281.246094 700.101562 281.246094 702.171875 "/>
<path style=" stroke:none;fill-rule:nonzero;fill:rgb(50.196078%,71.764706%,70.196078%);fill-opacity:1;" d="M 314.40625 713.339844 C 319.386719 716.226562 323.460938 723.28125 323.460938 729.03125 L 323.460938 845.765625 L 305.355469 835.316406 L 305.355469 718.578125 C 305.355469 712.820312 309.429688 710.46875 314.40625 713.339844 Z M 314.40625 713.339844 "/>
<path style=" stroke:none;fill-rule:nonzero;fill:rgb(47.843137%,84.705882%,92.941176%);fill-opacity:1;" d="M 314.40625 713.339844 C 312.207031 712.066406 310.210938 711.871094 308.636719 712.484375 C 307.734375 713.597656 307.195312 715.191406 307.195312 717.25 L 307.195312 833.988281 L 323.460938 843.382812 L 323.460938 729.03125 C 323.460938 723.273438 319.386719 716.226562 314.40625 713.339844 Z M 314.40625 713.339844 "/>
<path style=" stroke:none;fill-rule:nonzero;fill:rgb(38.039216%,80%,89.803922%);fill-opacity:1;" d="M 323.460938 843.382812 L 323.460938 729.03125 C 323.460938 723.273438 319.386719 716.226562 314.40625 713.339844 C 312.207031 712.066406 310.210938 711.871094 308.636719 712.484375 C 307.734375 713.597656 307.195312 715.191406 307.195312 717.25 "/>
<path style=" stroke:none;fill-rule:nonzero;fill:rgb(50.196078%,71.764706%,70.196078%);fill-opacity:1;" d="M 192.863281 643.234375 C 197.84375 646.113281 201.917969 653.175781 201.917969 658.933594 L 201.917969 775.65625 L 183.804688 765.210938 L 183.804688 648.464844 C 183.804688 642.714844 187.886719 640.363281 192.863281 643.234375 Z M 192.863281 643.234375 "/>
<path style=" stroke:none;fill-rule:nonzero;fill:rgb(47.843137%,84.705882%,92.941176%);fill-opacity:1;" d="M 192.863281 643.234375 C 190.664062 641.960938 188.667969 641.773438 187.09375 642.378906 C 186.195312 643.492188 185.65625 645.082031 185.65625 647.144531 L 185.65625 763.882812 L 201.917969 773.277344 L 201.917969 658.933594 C 201.917969 653.175781 197.84375 646.113281 192.863281 643.234375 Z M 192.863281 643.234375 "/>
<path style=" stroke:none;fill-rule:nonzero;fill:rgb(38.039216%,80%,89.803922%);fill-opacity:1;" d="M 201.917969 773.277344 L 201.917969 658.933594 C 201.917969 653.167969 197.84375 646.113281 192.863281 643.234375 C 190.664062 641.960938 188.667969 641.773438 187.09375 642.378906 C 186.195312 643.492188 185.65625 645.082031 185.65625 647.144531 "/>
<path style=" stroke:none;fill-rule:nonzero;fill:rgb(50.196078%,71.764706%,70.196078%);fill-opacity:1;" d="M 218.804688 658.328125 C 223.789062 661.210938 227.867188 668.273438 227.867188 674.019531 L 227.867188 790.757812 L 209.753906 780.296875 L 209.753906 663.550781 C 209.75 657.800781 213.832031 655.449219 218.804688 658.328125 Z M 218.804688 658.328125 "/>
<path style=" stroke:none;fill-rule:nonzero;fill:rgb(47.843137%,84.705882%,92.941176%);fill-opacity:1;" d="M 218.804688 658.328125 C 216.609375 657.058594 214.613281 656.863281 213.035156 657.464844 C 212.136719 658.578125 211.597656 660.175781 211.597656 662.230469 L 211.597656 778.980469 L 227.863281 788.367188 L 227.863281 674.019531 C 227.867188 668.265625 223.789062 661.210938 218.804688 658.328125 Z M 218.804688 658.328125 "/>
<path style=" stroke:none;fill-rule:nonzero;fill:rgb(38.039216%,80%,89.803922%);fill-opacity:1;" d="M 227.867188 788.367188 L 227.867188 674.019531 C 227.867188 668.265625 223.792969 661.210938 218.804688 658.328125 C 216.609375 657.058594 214.613281 656.863281 213.035156 657.464844 C 212.136719 658.578125 211.597656 660.175781 211.597656 662.230469 "/>
<path style=" stroke:none;fill-rule:nonzero;fill:rgb(31.764706%,55.686275%,54.509804%);fill-opacity:1;" d="M 252.550781 724.535156 C 262.511719 730.304688 270.664062 744.402344 270.664062 755.898438 L 270.664062 829.257812 L 234.441406 808.339844 L 234.441406 734.992188 C 234.441406 723.488281 242.597656 718.789062 252.550781 724.535156 Z M 252.550781 724.535156 "/>
<path style=" stroke:none;fill-rule:nonzero;fill:rgb(53.72549%,39.607843%,18.823529%);fill-opacity:1;" d="M 252.550781 724.535156 C 248.078125 721.949219 244.019531 721.574219 240.847656 722.890625 C 238.421875 725.039062 236.90625 728.585938 236.90625 733.449219 L 236.90625 806.800781 L 270.664062 826.28125 L 270.664062 755.898438 C 270.664062 744.402344 262.511719 730.304688 252.550781 724.535156 Z M 252.550781 724.535156 "/>
<path style=" stroke:none;fill-rule:nonzero;fill:rgb(43.921569%,30.980392%,14.117647%);fill-opacity:1;" d="M 270.664062 826.28125 L 270.664062 755.898438 C 270.664062 744.402344 262.519531 730.304688 252.550781 724.535156 C 248.078125 721.949219 244.019531 721.574219 240.847656 722.890625 C 238.421875 725.039062 236.90625 728.585938 236.90625 733.449219 "/>
<path style=" stroke:none;fill-rule:nonzero;fill:rgb(31.764706%,55.686275%,54.509804%);fill-opacity:1;" d="M 236.90625 743.597656 L 270.664062 763.082031 L 270.664062 757.390625 L 236.90625 737.90625 Z M 236.90625 743.597656 "/>
<path style=" stroke:none;fill-rule:nonzero;fill:rgb(31.764706%,55.686275%,54.509804%);fill-opacity:1;" d="M 251.417969 815.171875 L 253.691406 816.492188 L 253.691406 749.074219 L 251.417969 749.074219 Z M 251.417969 815.171875 "/>
<path style=" stroke:none;fill-rule:nonzero;fill:rgb(45.098039%,65.882353%,65.490196%);fill-opacity:1;" d="M 254.949219 482.507812 L 254.949219 474.292969 C 254.949219 470.097656 257.921875 468.394531 261.539062 470.476562 C 265.171875 472.574219 268.140625 477.714844 268.140625 481.910156 L 268.140625 490.125 Z M 254.949219 482.507812 "/>
<path style=" stroke:none;fill-rule:nonzero;fill:rgb(47.843137%,84.705882%,92.941176%);fill-opacity:1;" d="M 261.546875 470.484375 C 265.175781 472.582031 268.144531 477.722656 268.144531 481.914062 L 268.144531 488.554688 L 256.152344 481.625 L 256.152344 473.410156 C 256.152344 471.894531 256.546875 470.714844 257.21875 469.910156 C 258.371094 469.40625 259.882812 469.523438 261.546875 470.484375 Z M 261.546875 470.484375 "/>
<path style=" stroke:none;fill-rule:nonzero;fill:rgb(35.686275%,75.686275%,86.666667%);fill-opacity:1;" d="M 256.144531 473.410156 C 256.144531 471.894531 256.542969 470.714844 257.210938 469.910156 C 258.371094 469.40625 259.882812 469.523438 261.539062 470.484375 C 265.171875 472.582031 268.140625 477.722656 268.140625 481.914062 L 268.140625 488.554688 "/>
<path style=" stroke:none;fill-rule:nonzero;fill:rgb(45.098039%,65.882353%,65.490196%);fill-opacity:1;" d="M 254.949219 514.507812 L 254.949219 506.292969 C 254.949219 502.105469 257.921875 500.394531 261.539062 502.480469 C 265.171875 504.578125 268.140625 509.71875 268.140625 513.898438 L 268.140625 522.121094 Z M 254.949219 514.507812 "/>
<path style=" stroke:none;fill-rule:nonzero;fill:rgb(47.843137%,84.705882%,92.941176%);fill-opacity:1;" d="M 261.546875 502.484375 C 265.175781 504.582031 268.144531 509.722656 268.144531 513.90625 L 268.144531 520.550781 L 256.152344 513.628906 L 256.152344 505.410156 C 256.152344 503.902344 256.546875 502.71875 257.21875 501.921875 C 258.371094 501.402344 259.882812 501.527344 261.546875 502.484375 Z M 261.546875 502.484375 "/>
<path style=" stroke:none;fill-rule:nonzero;fill:rgb(35.686275%,75.686275%,86.666667%);fill-opacity:1;" d="M 256.144531 505.410156 C 256.144531 503.902344 256.542969 502.71875 257.210938 501.921875 C 258.371094 501.402344 259.882812 501.527344 261.539062 502.484375 C 265.171875 504.582031 268.140625 509.722656 268.140625 513.90625 L 268.140625 520.550781 "/>
<path style=" stroke:none;fill-rule:nonzero;fill:rgb(45.098039%,65.882353%,65.490196%);fill-opacity:1;" d="M 254.949219 546.511719 L 254.949219 538.300781 C 254.949219 534.109375 257.921875 532.398438 261.539062 534.488281 C 265.171875 536.585938 268.140625 541.726562 268.140625 545.90625 L 268.140625 554.125 Z M 254.949219 546.511719 "/>
<path style=" stroke:none;fill-rule:nonzero;fill:rgb(47.843137%,84.705882%,92.941176%);fill-opacity:1;" d="M 261.546875 534.488281 C 265.175781 536.585938 268.144531 541.726562 268.144531 545.90625 L 268.144531 552.546875 L 256.152344 545.628906 L 256.152344 537.414062 C 256.152344 535.898438 256.546875 534.71875 257.21875 533.90625 C 258.371094 533.40625 259.882812 533.527344 261.546875 534.488281 Z M 261.546875 534.488281 "/>
<path style=" stroke:none;fill-rule:nonzero;fill:rgb(35.686275%,75.686275%,86.666667%);fill-opacity:1;" d="M 256.144531 537.421875 C 256.144531 535.902344 256.542969 534.726562 257.210938 533.914062 C 258.371094 533.402344 259.882812 533.535156 261.539062 534.492188 C 265.171875 536.589844 268.140625 541.730469 268.140625 545.914062 L 268.140625 552.554688 "/>
<path style=" stroke:none;fill-rule:nonzero;fill:rgb(45.098039%,65.882353%,65.490196%);fill-opacity:1;" d="M 254.949219 578.507812 L 254.949219 570.292969 C 254.949219 566.105469 257.921875 564.394531 261.539062 566.484375 C 265.171875 568.582031 268.140625 573.722656 268.140625 577.910156 L 268.140625 586.125 Z M 254.949219 578.507812 "/>
<path style=" stroke:none;fill-rule:nonzero;fill:rgb(47.843137%,84.705882%,92.941176%);fill-opacity:1;" d="M 261.546875 566.492188 C 265.175781 568.585938 268.144531 573.730469 268.144531 577.917969 L 268.144531 584.5625 L 256.152344 577.632812 L 256.152344 569.417969 C 256.152344 567.898438 256.546875 566.722656 257.21875 565.910156 C 258.371094 565.402344 259.882812 565.53125 261.546875 566.492188 Z M 261.546875 566.492188 "/>
<path style=" stroke:none;fill-rule:nonzero;fill:rgb(35.686275%,75.686275%,86.666667%);fill-opacity:1;" d="M 256.144531 569.417969 C 256.144531 567.898438 256.542969 566.722656 257.210938 565.910156 C 258.371094 565.402344 259.882812 565.53125 261.539062 566.492188 C 265.171875 568.585938 268.140625 573.730469 268.140625 577.917969 L 268.140625 584.5625 "/>
<path style=" stroke:none;fill-rule:nonzero;fill:rgb(38.039216%,60%,58.039216%);fill-opacity:1;" d="M 233.28125 815.644531 L 202.238281 833.566406 C 196.554688 836.84375 196.554688 842.226562 202.238281 845.519531 L 222.933594 857.472656 C 228.621094 860.75 237.929688 860.75 243.625 857.472656 L 274.667969 839.550781 Z M 233.28125 815.644531 "/>
<path style=" stroke:none;fill-rule:nonzero;fill:rgb(38.039216%,60%,58.039216%);fill-opacity:1;" d="M 197.972656 836.902344 L 274.671875 836.902344 L 274.671875 839.421875 L 197.972656 839.421875 Z M 197.972656 836.902344 "/>
<path style=" stroke:none;fill-rule:nonzero;fill:rgb(50.196078%,71.764706%,70.196078%);fill-opacity:1;" d="M 233.28125 812.921875 L 202.238281 830.824219 C 196.554688 834.117188 196.554688 839.496094 202.238281 842.773438 L 222.933594 854.738281 C 228.621094 858.019531 237.929688 858.019531 243.625 854.738281 L 274.667969 836.808594 Z M 233.28125 812.921875 "/>
<path style=" stroke:none;fill-rule:nonzero;fill:rgb(38.039216%,60%,58.039216%);fill-opacity:1;" d="M 233.472656 813.132812 L 204.355469 829.949219 C 199.023438 833.027344 199.023438 838.058594 204.359375 841.15625 L 223.769531 852.363281 C 229.101562 855.441406 237.835938 855.441406 243.171875 852.363281 L 272.285156 835.550781 Z M 233.472656 813.132812 "/>
<path style=" stroke:none;fill-rule:nonzero;fill:rgb(38.039216%,60%,58.039216%);fill-opacity:1;" d="M 200.363281 833.078125 L 272.285156 833.078125 L 272.285156 835.441406 L 200.363281 835.441406 Z M 200.363281 833.078125 "/>
<path style=" stroke:none;fill-rule:nonzero;fill:rgb(55.686275%,74.901961%,74.901961%);fill-opacity:1;" d="M 233.472656 810.574219 L 204.355469 827.378906 C 199.023438 830.464844 199.023438 835.503906 204.359375 838.589844 L 223.769531 849.796875 C 229.101562 852.878906 237.835938 852.878906 243.171875 849.796875 L 272.285156 832.988281 Z M 233.472656 810.574219 "/>
<path style=" stroke:none;fill-rule:nonzero;fill:rgb(38.039216%,60%,58.039216%);fill-opacity:1;" d="M 234.382812 811.011719 L 207.375 826.621094 C 202.429688 829.464844 202.429688 834.160156 207.375 837.007812 L 225.378906 847.40625 C 230.332031 850.257812 238.433594 850.257812 243.386719 847.40625 L 270.394531 831.816406 Z M 234.382812 811.011719 "/>
<path style=" stroke:none;fill-rule:nonzero;fill:rgb(38.039216%,60%,58.039216%);fill-opacity:1;" d="M 203.667969 829.515625 L 270.394531 829.515625 L 270.394531 831.707031 L 203.667969 831.707031 Z M 203.667969 829.515625 "/>
<path style=" stroke:none;fill-rule:nonzero;fill:rgb(60.784314%,82.745098%,81.960784%);fill-opacity:1;" d="M 234.382812 808.644531 L 207.375 824.234375 C 202.429688 827.089844 202.429688 831.765625 207.375 834.628906 L 225.378906 845.027344 C 230.332031 847.882812 238.433594 847.882812 243.386719 845.027344 L 270.394531 829.433594 Z M 234.382812 808.644531 "/>
<path style=" stroke:none;fill-rule:nonzero;fill:rgb(45.882353%,20.392157%,42.352941%);fill-opacity:1;" d="M 273.984375 420.964844 C 273.179688 420.964844 272.523438 420.308594 272.523438 419.496094 L 272.523438 401.789062 C 272.523438 400.988281 273.179688 400.332031 273.984375 400.332031 C 274.789062 400.332031 275.449219 400.988281 275.449219 401.789062 L 275.449219 419.496094 C 275.441406 420.308594 274.789062 420.964844 273.984375 420.964844 Z M 273.984375 420.964844 "/>
<path style=" stroke:none;fill-rule:nonzero;fill:rgb(66.666667%,32.54902%,65.098039%);fill-opacity:1;" d="M 277.285156 385.996094 L 277.285156 378.378906 L 270.679688 374.558594 L 270.679688 382.195312 L 264.082031 378.378906 L 264.082031 385.996094 L 270.679688 389.804688 L 270.679688 405.039062 L 277.285156 408.855469 L 277.285156 393.609375 L 283.882812 397.417969 L 283.882812 389.804688 Z M 277.285156 385.996094 "/>
<path style=" stroke:none;fill-rule:nonzero;fill:rgb(31.764706%,55.686275%,54.509804%);fill-opacity:1;" d="M 421.601562 432.984375 L 421.601562 418.285156 L 408.878906 410.9375 L 408.878906 425.632812 L 396.15625 418.285156 L 396.15625 432.984375 L 408.878906 440.328125 L 408.878906 469.703125 L 421.601562 477.046875 L 421.601562 447.667969 L 434.324219 455.011719 L 434.324219 440.328125 Z M 421.601562 432.984375 "/>
<path style=" stroke:none;fill-rule:nonzero;fill:rgb(35.686275%,75.686275%,86.666667%);fill-opacity:1;" d="M 421.601562 432.984375 L 421.601562 418.285156 L 410.210938 411.714844 L 410.210938 424.8125 L 408.878906 425.632812 L 397.488281 419.046875 L 397.488281 432.15625 L 410.214844 439.5 L 410.210938 468.882812 L 421.601562 475.457031 L 421.601562 447.667969 L 422.933594 446.855469 L 434.324219 453.425781 L 434.324219 440.328125 Z M 421.601562 432.984375 "/>
<path style=" stroke:none;fill-rule:nonzero;fill:rgb(30.588235%,67.058824%,80%);fill-opacity:1;" d="M 434.324219 440.328125 L 421.601562 432.984375 L 421.601562 418.285156 L 410.210938 411.714844 L 410.210938 424.8125 L 408.878906 425.632812 L 397.488281 419.046875 L 397.488281 419.582031 L 409.515625 439.101562 L 410.214844 439.5 L 410.214844 440.226562 L 421.601562 458.703125 L 421.601562 447.667969 L 422.933594 446.855469 L 434.324219 453.425781 Z M 434.324219 440.328125 "/>
<path style=" stroke:none;fill-rule:nonzero;fill:rgb(50.196078%,71.764706%,70.196078%);fill-opacity:1;" d="M 660.453125 532.332031 C 652.640625 536.84375 646.246094 547.898438 646.246094 556.929688 L 646.246094 739.941406 L 674.644531 723.558594 L 674.644531 540.53125 C 674.644531 531.507812 668.253906 527.8125 660.453125 532.332031 Z M 660.453125 532.332031 "/>
<path style=" stroke:none;fill-rule:nonzero;fill:rgb(47.843137%,84.705882%,92.941176%);fill-opacity:1;" d="M 660.453125 532.332031 C 663.902344 530.335938 667.027344 530.023438 669.5 530.980469 C 670.902344 532.71875 671.75 535.222656 671.75 538.449219 L 671.75 721.484375 L 646.246094 736.191406 L 646.246094 556.929688 C 646.246094 547.898438 652.640625 536.84375 660.453125 532.332031 Z M 660.453125 532.332031 "/>
<path style=" stroke:none;fill-rule:nonzero;fill:rgb(38.039216%,80%,89.803922%);fill-opacity:1;" d="M 646.246094 736.199219 L 646.246094 556.929688 C 646.246094 547.898438 652.640625 536.839844 660.453125 532.332031 C 663.902344 530.335938 667.027344 530.023438 669.5 530.980469 C 670.902344 532.71875 671.75 535.222656 671.75 538.449219 "/>
<path style=" stroke:none;fill-rule:nonzero;fill:rgb(50.196078%,71.764706%,70.196078%);fill-opacity:1;" d="M 619.773438 555.984375 C 611.96875 560.515625 605.582031 571.5625 605.582031 580.574219 L 605.582031 763.597656 L 633.964844 747.214844 L 633.964844 564.191406 C 633.964844 555.171875 627.574219 551.488281 619.773438 555.984375 Z M 619.773438 555.984375 "/>
<path style=" stroke:none;fill-rule:nonzero;fill:rgb(47.843137%,84.705882%,92.941176%);fill-opacity:1;" d="M 619.773438 555.984375 C 623.222656 553.980469 626.355469 553.679688 628.820312 554.636719 C 630.230469 556.367188 631.074219 558.875 631.074219 562.101562 L 631.074219 745.136719 L 605.582031 759.847656 L 605.582031 580.582031 C 605.582031 571.5625 611.96875 560.515625 619.773438 555.984375 Z M 619.773438 555.984375 "/>
<path style=" stroke:none;fill-rule:nonzero;fill:rgb(38.039216%,80%,89.803922%);fill-opacity:1;" d="M 605.582031 759.855469 L 605.582031 580.582031 C 605.582031 571.566406 611.96875 560.515625 619.773438 555.988281 C 623.222656 553.988281 626.355469 553.683594 628.820312 554.644531 C 630.230469 556.375 631.074219 558.878906 631.074219 562.109375 "/>
<path style=" stroke:none;fill-rule:nonzero;fill:rgb(50.196078%,71.764706%,70.196078%);fill-opacity:1;" d="M 773.359375 467.511719 C 765.546875 472.023438 759.15625 483.082031 759.15625 492.113281 L 759.15625 675.125 L 787.550781 658.742188 L 787.550781 475.714844 C 787.550781 466.6875 781.160156 462.996094 773.359375 467.511719 Z M 773.359375 467.511719 "/>
<path style=" stroke:none;fill-rule:nonzero;fill:rgb(47.843137%,84.705882%,92.941176%);fill-opacity:1;" d="M 773.359375 467.511719 C 776.808594 465.519531 779.933594 465.207031 782.40625 466.160156 C 783.808594 467.902344 784.65625 470.402344 784.65625 473.628906 L 784.65625 656.667969 L 759.152344 671.371094 L 759.152344 492.113281 C 759.152344 483.082031 765.542969 472.023438 773.359375 467.511719 Z M 773.359375 467.511719 "/>
<path style=" stroke:none;fill-rule:nonzero;fill:rgb(38.039216%,80%,89.803922%);fill-opacity:1;" d="M 759.152344 671.375 L 759.152344 492.113281 C 759.152344 483.082031 765.542969 472.015625 773.355469 467.511719 C 776.800781 465.519531 779.929688 465.207031 782.398438 466.160156 C 783.800781 467.902344 784.648438 470.402344 784.648438 473.628906 "/>
<path style=" stroke:none;fill-rule:nonzero;fill:rgb(50.196078%,71.764706%,70.196078%);fill-opacity:1;" d="M 732.679688 491.167969 C 724.867188 495.6875 718.484375 506.738281 718.484375 515.757812 L 718.484375 698.78125 L 746.867188 682.394531 L 746.867188 499.371094 C 746.871094 490.34375 740.476562 486.664062 732.679688 491.167969 Z M 732.679688 491.167969 "/>
<path style=" stroke:none;fill-rule:nonzero;fill:rgb(47.843137%,84.705882%,92.941176%);fill-opacity:1;" d="M 732.679688 491.167969 C 736.128906 489.164062 739.261719 488.863281 741.726562 489.824219 C 743.132812 491.550781 743.980469 494.058594 743.980469 497.285156 L 743.980469 680.320312 L 718.484375 695.035156 L 718.484375 515.757812 C 718.484375 506.738281 724.867188 495.6875 732.679688 491.167969 Z M 732.679688 491.167969 "/>
<path style=" stroke:none;fill-rule:nonzero;fill:rgb(38.039216%,80%,89.803922%);fill-opacity:1;" d="M 718.484375 695.039062 L 718.484375 515.757812 C 718.484375 506.738281 724.867188 495.679688 732.679688 491.167969 C 736.128906 489.164062 739.261719 488.863281 741.726562 489.824219 C 743.132812 491.550781 743.980469 494.058594 743.980469 497.285156 "/>
<path style=" stroke:none;fill-rule:nonzero;fill:rgb(40%,40%,40%);fill-opacity:1;" d="M 206.792969 930.023438 L 215.953125 930.023438 C 215.097656 937.335938 212.398438 942.988281 207.855469 946.96875 C 203.3125 950.921875 197.265625 952.898438 189.710938 952.898438 C 181.542969 952.898438 174.992188 949.976562 170.066406 944.136719 C 165.140625 938.265625 162.675781 930.421875 162.675781 920.597656 L 162.675781 913.960938 C 162.675781 907.53125 163.828125 901.867188 166.128906 896.96875 C 168.429688 892.101562 171.675781 888.355469 175.863281 885.730469 C 180.082031 883.105469 184.964844 881.792969 190.507812 881.792969 C 197.882812 881.792969 203.78125 883.855469 208.207031 887.988281 C 212.632812 892.085938 215.214844 897.765625 215.953125 905.023438 L 206.792969 905.023438 C 205.996094 899.507812 204.269531 895.507812 201.613281 893.03125 C 198.960938 890.554688 195.257812 889.3125 190.507812 889.3125 C 184.699219 889.3125 180.125 891.46875 176.792969 895.773438 C 173.488281 900.082031 171.835938 906.21875 171.835938 914.179688 L 171.835938 920.863281 C 171.835938 928.386719 173.414062 934.359375 176.570312 938.78125 C 179.699219 943.238281 184.078125 945.464844 189.710938 945.464844 C 194.785156 945.464844 198.679688 944.3125 201.394531 942.011719 C 204.109375 939.710938 205.90625 935.714844 206.792969 930.023438 Z M 258.960938 951.96875 L 258.78125 946.878906 C 255.363281 950.890625 250.332031 952.898438 243.695312 952.898438 C 238.238281 952.898438 234.0625 951.320312 231.171875 948.164062 C 228.3125 944.976562 226.867188 940.257812 226.835938 934.003906 L 226.835938 900.554688 L 235.640625 900.554688 L 235.640625 933.78125 C 235.640625 941.570312 238.8125 945.464844 245.15625 945.464844 C 251.851562 945.464844 256.320312 942.957031 258.5625 937.941406 L 258.5625 900.554688 L 267.324219 900.554688 L 267.324219 951.96875 Z M 290.242188 878.960938 L 290.242188 951.96875 L 281.4375 951.96875 L 281.4375 878.960938 Z M 307.457031 888.074219 L 316.261719 888.074219 L 316.261719 900.554688 L 325.863281 900.554688 L 325.863281 907.324219 L 316.261719 907.324219 L 316.261719 939.226562 C 316.261719 941.289062 316.6875 942.839844 317.542969 943.871094 C 318.398438 944.902344 319.84375 945.421875 321.878906 945.421875 C 322.914062 945.421875 324.3125 945.230469 326.085938 944.84375 L 326.085938 951.96875 C 323.78125 952.589844 321.527344 952.898438 319.3125 952.898438 C 315.390625 952.898438 312.441406 951.71875 310.464844 949.359375 C 308.457031 946.96875 307.457031 943.589844 307.457031 939.226562 L 307.457031 907.324219 L 298.074219 907.324219 L 298.074219 900.554688 L 307.457031 900.554688 Z M 332.855469 926.394531 L 332.855469 925.773438 C 332.855469 920.730469 333.84375 916.203125 335.820312 912.191406 C 337.796875 908.148438 340.554688 905.035156 344.09375 902.855469 C 347.601562 900.671875 351.628906 899.578125 356.171875 899.578125 C 363.164062 899.578125 368.828125 902.011719 373.164062 906.878906 C 377.5 911.71875 379.667969 918.164062 379.667969 926.21875 L 379.667969 926.835938 C 379.667969 931.820312 378.710938 936.304688 376.792969 940.289062 C 374.875 944.269531 372.132812 947.367188 368.5625 949.578125 C 364.992188 951.792969 360.890625 952.898438 356.261719 952.898438 C 349.300781 952.898438 343.652344 950.480469 339.3125 945.640625 C 335.007812 940.804688 332.855469 934.386719 332.855469 926.394531 Z M 341.660156 926.835938 C 341.660156 932.53125 342.988281 937.101562 345.640625 940.554688 C 348.296875 944.003906 351.835938 945.730469 356.261719 945.730469 C 360.746094 945.730469 364.300781 943.988281 366.925781 940.507812 C 369.550781 937 370.863281 932.085938 370.863281 925.773438 C 370.863281 920.140625 369.519531 915.566406 366.835938 912.058594 C 364.152344 908.546875 360.597656 906.792969 356.171875 906.792969 C 351.835938 906.792969 348.339844 908.53125 345.6875 912.011719 C 343 915.464844 341.660156 920.40625 341.660156 926.835938 Z M 420.640625 938.339844 C 420.640625 935.953125 419.742188 934.109375 417.941406 932.808594 C 416.144531 931.480469 413.015625 930.347656 408.5625 929.402344 C 404.109375 928.457031 400.582031 927.308594 397.988281 925.953125 C 395.363281 924.625 393.429688 923.046875 392.191406 921.21875 C 390.921875 919.386719 390.289062 917.203125 390.289062 914.667969 C 390.289062 910.449219 392.070312 906.878906 395.640625 903.960938 C 399.210938 901.039062 403.769531 899.578125 409.3125 899.578125 C 415.15625 899.578125 419.890625 901.085938 423.519531 904.09375 C 427.144531 907.101562 428.960938 910.953125 428.960938 915.640625 L 420.109375 915.640625 C 420.109375 913.253906 419.09375 911.1875 417.058594 909.445312 C 414.992188 907.675781 412.410156 906.792969 409.3125 906.792969 C 406.097656 906.792969 403.589844 907.5 401.792969 908.914062 C 399.992188 910.300781 399.09375 912.117188 399.09375 914.359375 C 399.09375 916.480469 399.933594 918.089844 401.613281 919.179688 C 403.296875 920.242188 406.335938 921.277344 410.730469 922.277344 C 415.097656 923.253906 418.652344 924.417969 421.394531 925.773438 C 424.109375 927.132812 426.128906 928.769531 427.457031 930.6875 C 428.753906 932.601562 429.402344 934.949219 429.402344 937.722656 C 429.402344 942.292969 427.574219 945.964844 423.914062 948.738281 C 420.230469 951.511719 415.449219 952.898438 409.578125 952.898438 C 405.480469 952.898438 401.835938 952.175781 398.652344 950.730469 C 395.492188 949.285156 393.015625 947.25 391.21875 944.625 C 389.445312 942 388.5625 939.167969 388.5625 936.128906 L 397.324219 936.128906 C 397.5 939.078125 398.679688 941.421875 400.863281 943.164062 C 403.074219 944.875 405.980469 945.730469 409.578125 945.730469 C 412.914062 945.730469 415.582031 945.066406 417.589844 943.738281 C 419.625 942.382812 420.640625 940.582031 420.640625 938.339844 Z M 486.746094 921.128906 C 478.929688 918.886719 473.238281 916.113281 469.667969 912.808594 C 466.097656 909.535156 464.3125 905.492188 464.3125 900.6875 C 464.3125 895.230469 466.496094 890.714844 470.863281 887.144531 C 475.199219 883.578125 480.863281 881.792969 487.855469 881.792969 C 492.601562 881.792969 496.835938 882.722656 500.554688 884.578125 C 504.269531 886.410156 507.144531 888.945312 509.179688 892.191406 C 511.246094 895.40625 512.277344 898.929688 512.277344 902.765625 L 503.074219 902.765625 C 503.074219 898.578125 501.746094 895.289062 499.09375 892.898438 C 496.4375 890.507812 492.691406 889.3125 487.855469 889.3125 C 483.339844 889.3125 479.832031 890.300781 477.324219 892.277344 C 474.785156 894.253906 473.519531 897.011719 473.519531 900.554688 C 473.519531 903.355469 474.710938 905.730469 477.101562 907.675781 C 479.492188 909.625 483.5625 911.410156 489.3125 913.03125 C 495.066406 914.652344 499.566406 916.4375 502.808594 918.386719 C 506.085938 920.332031 508.503906 922.601562 510.066406 925.199219 C 511.628906 927.796875 512.410156 930.863281 512.410156 934.402344 C 512.410156 940.007812 510.230469 944.492188 505.863281 947.855469 C 501.46875 951.21875 495.613281 952.898438 488.296875 952.898438 C 483.546875 952.898438 479.121094 952 475.023438 950.199219 C 470.890625 948.371094 467.707031 945.878906 465.464844 942.722656 C 463.222656 939.535156 462.101562 935.9375 462.101562 931.925781 L 471.304688 931.925781 C 471.304688 936.085938 472.839844 939.386719 475.90625 941.835938 C 479.003906 944.253906 483.132812 945.464844 488.296875 945.464844 C 493.132812 945.464844 496.835938 944.476562 499.402344 942.5 C 501.96875 940.554688 503.253906 937.882812 503.253906 934.492188 C 503.253906 931.097656 502.058594 928.472656 499.667969 926.613281 C 497.277344 924.757812 492.972656 922.929688 486.746094 921.128906 Z M 544.046875 952.898438 C 537.085938 952.898438 531.421875 950.613281 527.058594 946.039062 C 522.691406 941.46875 520.507812 935.347656 520.507812 927.675781 L 520.507812 926.085938 C 520.507812 920.980469 521.480469 916.421875 523.429688 912.410156 C 525.375 908.398438 528.089844 905.257812 531.570312 902.988281 C 535.082031 900.714844 538.886719 899.578125 542.988281 899.578125 C 549.652344 899.578125 554.84375 901.792969 558.5625 906.21875 C 562.277344 910.613281 564.136719 916.910156 564.136719 925.109375 L 564.136719 928.78125 L 529.269531 928.78125 C 529.417969 933.855469 530.90625 937.941406 533.738281 941.039062 C 536.570312 944.167969 540.167969 945.730469 544.535156 945.730469 C 547.632812 945.730469 550.257812 945.097656 552.410156 943.828125 C 554.566406 942.558594 556.453125 940.878906 558.074219 938.78125 L 563.472656 942.988281 C 559.167969 949.59375 552.691406 952.898438 544.046875 952.898438 Z M 542.988281 906.792969 C 539.417969 906.792969 536.4375 908.089844 534.046875 910.6875 C 531.628906 913.28125 530.140625 916.910156 529.578125 921.570312 L 555.332031 921.570312 L 555.332031 920.863281 C 555.066406 916.410156 553.855469 912.957031 551.703125 910.507812 C 549.550781 908.03125 546.644531 906.792969 542.988281 906.792969 Z M 574.226562 900.554688 L 582.542969 900.554688 L 582.808594 906.261719 C 586.585938 901.808594 591.675781 899.578125 598.074219 899.578125 C 605.273438 899.578125 610.167969 902.335938 612.765625 907.855469 C 614.476562 905.375 616.703125 903.386719 619.445312 901.878906 C 622.160156 900.347656 625.390625 899.578125 629.136719 899.578125 C 640.433594 899.578125 646.171875 905.554688 646.347656 917.5 L 646.347656 951.96875 L 637.542969 951.96875 L 637.542969 918.03125 C 637.542969 914.34375 636.703125 911.601562 635.023438 909.800781 C 633.339844 907.972656 630.523438 907.058594 626.570312 907.058594 C 623.324219 907.058594 620.625 908.03125 618.472656 909.976562 C 616.289062 911.925781 615.035156 914.550781 614.710938 917.855469 L 614.710938 951.96875 L 605.863281 951.96875 L 605.863281 918.253906 C 605.863281 910.789062 602.203125 907.058594 594.890625 907.058594 C 589.109375 907.058594 585.15625 909.507812 583.03125 914.402344 L 583.03125 951.96875 L 574.226562 951.96875 Z M 700.597656 951.96875 L 691.347656 951.96875 C 690.847656 950.964844 690.433594 949.167969 690.109375 946.570312 C 686.039062 950.789062 681.171875 952.898438 675.507812 952.898438 C 670.433594 952.898438 666.277344 951.46875 663.03125 948.605469 C 659.757812 945.746094 658.121094 942.117188 658.121094 937.722656 C 658.121094 932.351562 660.167969 928.191406 664.269531 925.242188 C 668.339844 922.265625 674.0625 920.773438 681.4375 920.773438 L 689.976562 920.773438 L 689.976562 916.746094 C 689.976562 913.679688 689.0625 911.230469 687.234375 909.402344 C 685.40625 907.574219 682.691406 906.660156 679.09375 906.660156 C 675.964844 906.660156 673.339844 907.457031 671.21875 909.046875 C 669.09375 910.640625 668.03125 912.558594 668.03125 914.800781 L 659.179688 914.800781 C 659.179688 912.234375 660.097656 909.757812 661.925781 907.367188 C 663.753906 904.976562 666.21875 903.074219 669.3125 901.660156 C 672.441406 900.273438 675.878906 899.578125 679.625 899.578125 C 685.554688 899.578125 690.199219 901.070312 693.5625 904.046875 C 696.925781 907 698.664062 911.070312 698.78125 916.261719 L 698.78125 939.933594 C 698.78125 944.652344 699.386719 948.414062 700.597656 951.21875 Z M 676.792969 945.289062 C 679.535156 945.289062 682.144531 944.566406 684.625 943.121094 C 687.101562 941.703125 688.886719 939.859375 689.976562 937.589844 L 689.976562 927.011719 L 683.074219 927.011719 C 672.308594 927.011719 666.925781 930.167969 666.925781 936.480469 C 666.925781 939.226562 667.855469 941.378906 669.710938 942.941406 C 671.542969 944.507812 673.902344 945.289062 676.792969 945.289062 Z M 712.542969 900.554688 L 720.863281 900.554688 L 721.171875 907.011719 C 725.097656 902.058594 730.230469 899.578125 736.570312 899.578125 C 747.425781 899.578125 752.914062 905.714844 753.03125 917.988281 L 753.03125 951.96875 L 744.226562 951.96875 L 744.226562 917.941406 C 744.195312 914.226562 743.339844 911.480469 741.660156 909.710938 C 740.007812 907.941406 737.425781 907.058594 733.914062 907.058594 C 731.054688 907.058594 728.546875 907.808594 726.394531 909.3125 C 724.242188 910.847656 722.558594 912.855469 721.347656 915.332031 L 721.347656 951.96875 L 712.542969 951.96875 Z M 807.234375 951.96875 L 798.03125 951.96875 C 797.53125 950.964844 797.117188 949.167969 796.792969 946.570312 C 792.691406 950.789062 787.808594 952.898438 782.144531 952.898438 C 777.070312 952.898438 772.914062 951.46875 769.667969 948.605469 C 766.421875 945.746094 764.800781 942.117188 764.800781 937.722656 C 764.800781 932.351562 766.835938 928.191406 770.90625 925.242188 C 774.976562 922.265625 780.699219 920.773438 788.074219 920.773438 L 796.660156 920.773438 L 796.660156 916.746094 C 796.660156 913.679688 795.730469 911.230469 793.871094 909.402344 C 792.042969 907.574219 789.34375 906.660156 785.773438 906.660156 C 782.617188 906.660156 779.976562 907.457031 777.855469 909.046875 C 775.730469 910.640625 774.667969 912.558594 774.667969 914.800781 L 765.863281 914.800781 C 765.863281 912.234375 766.761719 909.757812 768.5625 907.367188 C 770.390625 904.976562 772.867188 903.074219 775.996094 901.660156 C 779.121094 900.273438 782.558594 899.578125 786.304688 899.578125 C 792.203125 899.578125 796.835938 901.070312 800.199219 904.046875 C 803.5625 907 805.300781 911.070312 805.421875 916.261719 L 805.421875 939.933594 C 805.421875 944.652344 806.023438 948.414062 807.234375 951.21875 Z M 783.429688 945.289062 C 786.203125 945.289062 788.8125 944.566406 791.261719 943.121094 C 793.738281 941.703125 795.539062 939.859375 796.660156 937.589844 L 796.660156 927.011719 L 789.757812 927.011719 C 778.988281 927.011719 773.605469 930.167969 773.605469 936.480469 C 773.605469 939.226562 774.519531 941.378906 776.347656 942.941406 C 778.179688 944.507812 780.539062 945.289062 783.429688 945.289062 Z M 828.78125 900.554688 L 828.78125 951.96875 L 819.976562 951.96875 L 819.976562 900.554688 Z M 819.269531 886.878906 C 819.269531 885.464844 819.710938 884.269531 820.597656 883.296875 C 821.453125 882.292969 822.734375 881.792969 824.445312 881.792969 C 826.15625 881.792969 827.457031 882.292969 828.339844 883.296875 C 829.226562 884.269531 829.667969 885.464844 829.667969 886.878906 C 829.667969 888.324219 829.226562 889.519531 828.339844 890.464844 C 827.457031 891.410156 826.15625 891.878906 824.445312 891.878906 C 822.734375 891.878906 821.453125 891.410156 820.597656 890.464844 C 819.710938 889.519531 819.269531 888.324219 819.269531 886.878906 Z M 872.808594 938.339844 C 872.808594 935.953125 871.910156 934.109375 870.109375 932.808594 C 868.3125 931.480469 865.183594 930.347656 860.730469 929.402344 C 856.277344 928.457031 852.75 927.308594 850.15625 925.953125 C 847.53125 924.625 845.597656 923.046875 844.359375 921.21875 C 843.089844 919.386719 842.457031 917.203125 842.457031 914.667969 C 842.457031 910.449219 844.242188 906.878906 847.808594 903.960938 C 851.378906 901.039062 855.9375 899.578125 861.480469 899.578125 C 867.324219 899.578125 872.058594 901.085938 875.6875 904.09375 C 879.3125 907.101562 881.128906 910.953125 881.128906 915.640625 L 872.277344 915.640625 C 872.277344 913.253906 871.261719 911.1875 869.226562 909.445312 C 867.160156 907.675781 864.578125 906.792969 861.480469 906.792969 C 858.296875 906.792969 855.789062 907.5 853.960938 908.914062 C 852.160156 910.300781 851.261719 912.117188 851.261719 914.359375 C 851.261719 916.480469 852.101562 918.089844 853.78125 919.179688 C 855.464844 920.242188 858.503906 921.277344 862.898438 922.277344 C 867.265625 923.253906 870.820312 924.417969 873.5625 925.773438 C 876.277344 927.132812 878.296875 928.769531 879.625 930.6875 C 880.921875 932.601562 881.570312 934.949219 881.570312 937.722656 C 881.570312 942.292969 879.742188 945.964844 876.085938 948.738281 C 872.398438 951.511719 867.617188 952.898438 861.746094 952.898438 C 857.648438 952.898438 854.003906 952.175781 850.820312 950.730469 C 847.664062 949.285156 845.183594 947.25 843.386719 944.625 C 841.613281 942 840.730469 939.167969 840.730469 936.128906 L 849.492188 936.128906 C 849.667969 939.078125 850.847656 941.421875 853.03125 943.164062 C 855.242188 944.875 858.148438 945.730469 861.746094 945.730469 C 865.082031 945.730469 867.75 945.066406 869.757812 943.738281 C 871.792969 942.382812 872.808594 940.582031 872.808594 938.339844 Z M 872.808594 938.339844 "/>
</g>
</svg>
