<?xml version="1.0" encoding="UTF-8"?>
<svg xmlns="http://www.w3.org/2000/svg" xmlns:xlink="http://www.w3.org/1999/xlink" width="500pt" height="500pt" viewBox="0 0 500 500" version="1.1">
<g id="surface156716">
<path style=" stroke:none;fill-rule:nonzero;fill:rgb(20.392157%,59.607843%,85.882353%);fill-opacity:1;" d="M 0 250 C 0 111.929688 111.929688 0 250 0 C 388.070312 0 500 111.929688 500 250 C 500 388.070312 388.070312 500 250 500 C 111.929688 500 0 388.070312 0 250 Z M 250 490 C 382.546875 490 490 382.546875 490 250 C 490 117.453125 382.546875 10 250 10 C 117.453125 10 10 117.453125 10 250 C 10 382.546875 117.453125 490 250 490 Z M 250 490 "/>
<path style=" stroke:none;fill-rule:nonzero;fill:rgb(81.176471%,89.803922%,89.803922%);fill-opacity:1;" d="M 362.179688 138.796875 L 362.179688 209.644531 L 375.535156 217.355469 L 375.535156 146.503906 Z M 362.179688 138.796875 "/>
<path style=" stroke:none;fill-rule:nonzero;fill:rgb(74.117647%,85.490196%,85.882353%);fill-opacity:1;" d="M 375.535156 217.355469 L 375.535156 146.503906 L 362.179688 138.796875 "/>
<path style=" stroke:none;fill-rule:nonzero;fill:rgb(55.686275%,74.901961%,74.901961%);fill-opacity:1;" d="M 388.890625 138.796875 L 388.890625 209.644531 L 375.535156 217.355469 L 375.535156 146.503906 Z M 388.890625 138.796875 "/>
<path style=" stroke:none;fill-rule:nonzero;fill:rgb(50.196078%,71.764706%,70.196078%);fill-opacity:1;" d="M 375.535156 217.355469 L 375.535156 146.503906 L 388.890625 138.796875 "/>
<path style=" stroke:none;fill-rule:nonzero;fill:rgb(45.882353%,20.392157%,42.352941%);fill-opacity:1;" d="M 375.535156 115.667969 L 375.535156 146.503906 L 388.890625 138.796875 Z M 375.535156 115.667969 "/>
<path style=" stroke:none;fill-rule:nonzero;fill:rgb(66.666667%,32.54902%,65.098039%);fill-opacity:1;" d="M 375.535156 115.667969 L 375.535156 146.503906 L 362.179688 138.796875 Z M 375.535156 115.667969 "/>
<path style=" stroke:none;fill-rule:nonzero;fill:rgb(45.098039%,65.882353%,65.490196%);fill-opacity:1;" d="M 364.738281 152.941406 L 364.738281 148.277344 C 364.738281 145.898438 366.421875 144.933594 368.480469 146.117188 C 370.535156 147.308594 372.21875 150.222656 372.21875 152.597656 L 372.21875 157.261719 Z M 364.738281 152.941406 "/>
<path style=" stroke:none;fill-rule:nonzero;fill:rgb(47.843137%,84.705882%,92.941176%);fill-opacity:1;" d="M 368.480469 146.117188 C 370.535156 147.308594 372.21875 150.222656 372.21875 152.597656 L 372.21875 156.371094 L 365.414062 152.4375 L 365.414062 147.78125 C 365.414062 146.917969 365.640625 146.25 366.019531 145.792969 C 366.679688 145.503906 367.535156 145.574219 368.480469 146.117188 Z M 368.480469 146.117188 "/>
<path style=" stroke:none;fill-rule:nonzero;fill:rgb(35.686275%,75.686275%,86.666667%);fill-opacity:1;" d="M 365.417969 147.78125 C 365.417969 146.917969 365.640625 146.25 366.019531 145.792969 C 366.679688 145.503906 367.535156 145.570312 368.480469 146.117188 C 370.535156 147.308594 372.21875 150.222656 372.21875 152.597656 L 372.21875 156.371094 "/>
<path style=" stroke:none;fill-rule:nonzero;fill:rgb(81.176471%,89.803922%,89.803922%);fill-opacity:1;" d="M 278.429688 108.832031 L 278.429688 179.683594 L 291.785156 187.390625 L 291.785156 116.542969 Z M 278.429688 108.832031 "/>
<path style=" stroke:none;fill-rule:nonzero;fill:rgb(74.117647%,85.490196%,85.882353%);fill-opacity:1;" d="M 291.785156 187.390625 L 291.785156 116.542969 L 278.429688 108.832031 "/>
<path style=" stroke:none;fill-rule:nonzero;fill:rgb(55.686275%,74.901961%,74.901961%);fill-opacity:1;" d="M 305.140625 108.832031 L 305.140625 179.683594 L 291.785156 187.390625 L 291.785156 116.542969 Z M 305.140625 108.832031 "/>
<path style=" stroke:none;fill-rule:nonzero;fill:rgb(50.196078%,71.764706%,70.196078%);fill-opacity:1;" d="M 291.785156 187.390625 L 291.785156 116.542969 L 305.140625 108.832031 "/>
<path style=" stroke:none;fill-rule:nonzero;fill:rgb(45.882353%,20.392157%,42.352941%);fill-opacity:1;" d="M 291.785156 85.703125 L 291.785156 116.542969 L 305.140625 108.832031 Z M 291.785156 85.703125 "/>
<path style=" stroke:none;fill-rule:nonzero;fill:rgb(66.666667%,32.54902%,65.098039%);fill-opacity:1;" d="M 291.785156 85.703125 L 291.785156 116.542969 L 278.429688 108.832031 Z M 291.785156 85.703125 "/>
<path style=" stroke:none;fill-rule:nonzero;fill:rgb(45.098039%,65.882353%,65.490196%);fill-opacity:1;" d="M 280.988281 122.976562 L 280.988281 118.3125 C 280.988281 115.9375 282.671875 114.96875 284.730469 116.152344 C 286.789062 117.347656 288.472656 120.257812 288.472656 122.636719 L 288.472656 127.296875 Z M 280.988281 122.976562 "/>
<path style=" stroke:none;fill-rule:nonzero;fill:rgb(47.843137%,84.705882%,92.941176%);fill-opacity:1;" d="M 284.730469 116.152344 C 286.789062 117.347656 288.472656 120.257812 288.472656 122.636719 L 288.472656 126.410156 L 281.667969 122.476562 L 281.667969 117.816406 C 281.667969 116.953125 281.890625 116.285156 282.273438 115.828125 C 282.929688 115.539062 283.789062 115.613281 284.730469 116.152344 Z M 284.730469 116.152344 "/>
<path style=" stroke:none;fill-rule:nonzero;fill:rgb(35.686275%,75.686275%,86.666667%);fill-opacity:1;" d="M 281.667969 117.816406 C 281.667969 116.953125 281.890625 116.285156 282.273438 115.828125 C 282.929688 115.539062 283.789062 115.609375 284.730469 116.152344 C 286.789062 117.347656 288.476562 120.257812 288.476562 122.636719 L 288.476562 126.410156 "/>
<path style=" stroke:none;fill-rule:nonzero;fill:rgb(74.117647%,85.490196%,85.882353%);fill-opacity:1;" d="M 167.691406 322.464844 L 278.289062 386.316406 L 278.289062 282.976562 L 214.890625 210.105469 L 167.691406 219.109375 Z M 167.691406 322.464844 "/>
<path style=" stroke:none;fill-rule:nonzero;fill:rgb(55.686275%,74.901961%,74.901961%);fill-opacity:1;" d="M 278.289062 282.976562 L 388.890625 219.109375 L 388.890625 322.464844 L 278.289062 386.316406 Z M 278.289062 282.976562 "/>
<path style=" stroke:none;fill-rule:nonzero;fill:rgb(74.117647%,85.490196%,85.882353%);fill-opacity:1;" d="M 167.691406 312.871094 L 278.289062 376.734375 L 278.289062 273.382812 L 214.890625 200.515625 L 167.691406 209.519531 Z M 167.691406 312.871094 "/>
<path style=" stroke:none;fill-rule:nonzero;fill:rgb(55.686275%,74.901961%,74.901961%);fill-opacity:1;" d="M 278.289062 273.382812 L 214.890625 200.515625 L 167.691406 209.519531 M 278.289062 273.382812 L 388.890625 209.519531 L 388.890625 312.871094 L 278.289062 376.734375 Z M 278.289062 273.382812 "/>
<path style=" stroke:none;fill-rule:nonzero;fill:rgb(45.490196%,66.666667%,64.705882%);fill-opacity:1;" d="M 278.289062 376.734375 L 278.289062 273.382812 L 388.890625 209.519531 "/>
<path style=" stroke:none;fill-rule:nonzero;fill:rgb(45.882353%,20.392157%,42.352941%);fill-opacity:1;" d="M 214.890625 200.515625 L 325.691406 136.550781 L 388.890625 209.519531 L 278.289062 273.382812 Z M 214.890625 200.515625 "/>
<path style=" stroke:none;fill-rule:nonzero;fill:rgb(37.647059%,16.862745%,33.72549%);fill-opacity:1;" d="M 278.289062 273.382812 L 214.890625 200.515625 L 325.691406 136.550781 "/>
<path style=" stroke:none;fill-rule:nonzero;fill:rgb(66.666667%,32.54902%,65.098039%);fill-opacity:1;" d="M 325.691406 136.550781 L 278.289062 145.671875 L 167.691406 209.519531 L 214.890625 200.515625 Z M 325.691406 136.550781 "/>
<path style=" stroke:none;fill-rule:nonzero;fill:rgb(57.647059%,26.666667%,54.901961%);fill-opacity:1;" d="M 167.691406 209.519531 L 214.890625 200.515625 L 325.691406 136.550781 "/>
<path style=" stroke:none;fill-rule:nonzero;fill:rgb(40.784314%,16.078431%,38.431373%);fill-opacity:1;" d="M 236.078125 224.875 L 346.8125 160.9375 L 338.992188 151.90625 L 228.238281 215.859375 Z M 252.886719 244.183594 L 363.566406 180.285156 L 355.746094 171.253906 L 245.042969 235.171875 Z M 269.691406 263.5 L 380.320312 199.628906 L 372.5 190.597656 L 261.847656 254.488281 Z M 269.691406 263.5 "/>
<path style=" stroke:none;fill-rule:nonzero;fill:rgb(55.686275%,74.901961%,74.901961%);fill-opacity:1;" d="M 107.703125 372.855469 L 181.660156 415.550781 L 181.660156 346.445312 L 139.265625 297.71875 L 107.703125 303.738281 Z M 107.703125 372.855469 "/>
<path style=" stroke:none;fill-rule:nonzero;fill:rgb(45.098039%,65.882353%,65.490196%);fill-opacity:1;" d="M 181.660156 346.445312 L 255.621094 303.738281 L 255.621094 372.855469 L 181.660156 415.550781 Z M 181.660156 346.445312 "/>
<path style=" stroke:none;fill-rule:nonzero;fill:rgb(74.117647%,85.490196%,85.882353%);fill-opacity:1;" d="M 107.703125 366.4375 L 181.660156 409.144531 L 181.660156 340.035156 L 139.265625 291.304688 L 107.703125 297.324219 Z M 107.703125 366.4375 "/>
<path style=" stroke:none;fill-rule:nonzero;fill:rgb(55.686275%,74.901961%,74.901961%);fill-opacity:1;" d="M 181.660156 340.035156 L 139.265625 291.304688 L 107.703125 297.324219 M 181.660156 340.035156 L 255.621094 297.324219 L 255.621094 366.4375 L 181.660156 409.144531 Z M 181.660156 340.035156 "/>
<path style=" stroke:none;fill-rule:nonzero;fill:rgb(45.490196%,66.666667%,64.705882%);fill-opacity:1;" d="M 181.660156 409.144531 L 181.660156 340.035156 L 255.621094 297.324219 "/>
<path style=" stroke:none;fill-rule:nonzero;fill:rgb(45.882353%,20.392157%,42.352941%);fill-opacity:1;" d="M 139.265625 291.304688 L 213.359375 248.53125 L 255.621094 297.324219 L 181.660156 340.035156 Z M 139.265625 291.304688 "/>
<path style=" stroke:none;fill-rule:nonzero;fill:rgb(37.647059%,16.862745%,33.72549%);fill-opacity:1;" d="M 181.660156 340.035156 L 139.265625 291.304688 L 213.359375 248.53125 "/>
<path style=" stroke:none;fill-rule:nonzero;fill:rgb(66.666667%,32.54902%,65.098039%);fill-opacity:1;" d="M 213.359375 248.53125 L 181.660156 254.628906 L 107.703125 297.324219 L 139.265625 291.304688 Z M 213.359375 248.53125 "/>
<path style=" stroke:none;fill-rule:nonzero;fill:rgb(57.647059%,26.666667%,54.901961%);fill-opacity:1;" d="M 107.703125 297.324219 L 139.265625 291.304688 L 213.359375 248.53125 "/>
<path style=" stroke:none;fill-rule:nonzero;fill:rgb(29.803922%,13.333333%,27.45098%);fill-opacity:1;" d="M 141.207031 293.539062 L 161.6875 317.074219 L 161.6875 278.363281 L 141.207031 290.183594 Z M 141.207031 293.539062 "/>
<path style=" stroke:none;fill-rule:nonzero;fill:rgb(81.176471%,89.803922%,89.803922%);fill-opacity:1;" d="M 141.207031 231.628906 L 141.207031 285.953125 L 151.449219 291.863281 L 151.449219 237.539062 Z M 141.207031 231.628906 "/>
<path style=" stroke:none;fill-rule:nonzero;fill:rgb(74.117647%,85.490196%,85.882353%);fill-opacity:1;" d="M 151.449219 291.863281 L 151.449219 237.539062 L 141.207031 231.628906 "/>
<path style=" stroke:none;fill-rule:nonzero;fill:rgb(55.686275%,74.901961%,74.901961%);fill-opacity:1;" d="M 161.6875 231.628906 L 161.6875 285.953125 L 151.449219 291.863281 L 151.449219 237.539062 Z M 161.6875 231.628906 "/>
<path style=" stroke:none;fill-rule:nonzero;fill:rgb(50.196078%,71.764706%,70.196078%);fill-opacity:1;" d="M 151.449219 291.863281 L 151.449219 237.539062 L 161.6875 231.628906 "/>
<path style=" stroke:none;fill-rule:nonzero;fill:rgb(45.882353%,20.392157%,42.352941%);fill-opacity:1;" d="M 151.449219 213.890625 L 151.449219 237.539062 L 161.6875 231.628906 Z M 151.449219 213.890625 "/>
<path style=" stroke:none;fill-rule:nonzero;fill:rgb(66.666667%,32.54902%,65.098039%);fill-opacity:1;" d="M 151.449219 213.890625 L 151.449219 237.539062 L 141.207031 231.628906 Z M 151.449219 213.890625 "/>
<path style=" stroke:none;fill-rule:nonzero;fill:rgb(31.764706%,55.686275%,54.509804%);fill-opacity:1;" d="M 143.972656 310.558594 L 143.972656 304.164062 L 138.4375 300.96875 L 138.4375 307.363281 L 132.902344 304.164062 L 132.902344 310.558594 L 138.4375 313.75 L 138.4375 326.53125 L 143.972656 329.730469 L 143.972656 316.945312 L 149.511719 320.148438 L 149.511719 313.75 Z M 143.972656 310.558594 "/>
<path style=" stroke:none;fill-rule:nonzero;fill:rgb(35.686275%,75.686275%,86.666667%);fill-opacity:1;" d="M 143.972656 310.558594 L 143.972656 304.164062 L 139.015625 301.304688 L 139.015625 307.003906 L 138.4375 307.363281 L 133.484375 304.496094 L 133.484375 310.199219 L 139.019531 313.394531 L 139.015625 326.175781 L 143.972656 329.039062 L 143.972656 316.945312 L 144.550781 316.597656 L 149.511719 319.453125 L 149.511719 313.75 Z M 143.972656 310.558594 "/>
<path style=" stroke:none;fill-rule:nonzero;fill:rgb(30.588235%,67.058824%,80%);fill-opacity:1;" d="M 149.511719 313.75 L 143.972656 310.558594 L 143.972656 304.164062 L 139.015625 301.304688 L 139.015625 307.003906 L 138.4375 307.363281 L 133.484375 304.496094 L 133.484375 304.730469 L 138.71875 313.222656 L 139.019531 313.394531 L 139.019531 313.710938 L 143.972656 321.75 L 143.972656 316.945312 L 144.550781 316.597656 L 149.511719 319.453125 Z M 149.511719 313.75 "/>
<path style=" stroke:none;fill-rule:nonzero;fill:rgb(40.784314%,16.078431%,38.431373%);fill-opacity:1;" d="M 153.433594 307.59375 L 227.480469 264.839844 L 222.253906 258.804688 L 148.191406 301.566406 Z M 164.675781 320.507812 L 238.6875 277.773438 L 233.457031 271.738281 L 159.429688 314.480469 Z M 175.914062 333.425781 L 249.890625 290.710938 L 244.660156 284.679688 L 170.667969 327.394531 Z M 175.914062 333.425781 "/>
<path style=" stroke:none;fill-rule:nonzero;fill:rgb(45.098039%,65.882353%,65.490196%);fill-opacity:1;" d="M 193.609375 386.105469 L 193.609375 399.484375 L 205.085938 392.859375 L 205.085938 379.484375 Z M 205.085938 365.863281 L 193.609375 372.488281 L 193.609375 384.308594 L 205.085938 377.683594 Z M 193.609375 370.6875 L 205.085938 364.058594 L 205.085938 352.238281 L 193.609375 358.863281 Z M 205.085938 350.4375 L 205.085938 343.292969 C 205.085938 339.648438 202.503906 338.160156 199.351562 339.980469 C 196.191406 341.804688 193.609375 346.273438 193.609375 349.917969 L 193.609375 357.0625 Z M 205.085938 350.4375 "/>
<path style=" stroke:none;fill-rule:nonzero;fill:rgb(35.686275%,75.686275%,86.666667%);fill-opacity:1;" d="M 204.046875 392.09375 L 204.046875 380.082031 L 193.609375 386.105469 L 193.609375 398.113281 Z M 204.046875 392.09375 "/>
<path style=" stroke:none;fill-rule:nonzero;fill:rgb(35.686275%,75.686275%,86.666667%);fill-opacity:1;" d="M 204.046875 392.09375 L 204.046875 380.082031 L 193.609375 386.105469 L 193.609375 398.113281 Z M 204.046875 392.09375 "/>
<path style=" stroke:none;fill-rule:nonzero;fill:rgb(47.843137%,84.705882%,92.941176%);fill-opacity:1;" d="M 204.046875 392.09375 L 204.046875 380.082031 L 193.609375 386.105469 L 193.609375 398.113281 Z M 204.046875 392.09375 "/>
<path style=" stroke:none;fill-rule:nonzero;fill:rgb(35.686275%,75.686275%,86.666667%);fill-opacity:1;" d="M 204.046875 380.082031 L 193.609375 386.105469 L 193.609375 398.113281 "/>
<path style=" stroke:none;fill-rule:nonzero;fill:rgb(47.843137%,84.705882%,92.941176%);fill-opacity:1;" d="M 204.046875 376.910156 L 204.046875 366.460938 L 193.609375 372.488281 L 193.609375 382.9375 Z M 204.046875 376.910156 "/>
<path style=" stroke:none;fill-rule:nonzero;fill:rgb(35.686275%,75.686275%,86.666667%);fill-opacity:1;" d="M 204.046875 366.460938 L 193.609375 372.488281 L 193.609375 382.9375 "/>
<path style=" stroke:none;fill-rule:nonzero;fill:rgb(47.843137%,84.705882%,92.941176%);fill-opacity:1;" d="M 204.046875 363.289062 L 204.046875 352.839844 L 193.609375 358.863281 L 193.609375 369.324219 Z M 204.046875 363.289062 "/>
<path style=" stroke:none;fill-rule:nonzero;fill:rgb(35.686275%,75.686275%,86.666667%);fill-opacity:1;" d="M 204.046875 352.839844 L 193.609375 358.863281 L 193.609375 369.324219 "/>
<path style=" stroke:none;fill-rule:nonzero;fill:rgb(47.843137%,84.705882%,92.941176%);fill-opacity:1;" d="M 199.351562 339.976562 C 196.191406 341.800781 193.609375 346.269531 193.609375 349.914062 L 193.609375 355.691406 L 204.046875 349.664062 L 204.046875 342.523438 C 204.046875 341.199219 203.699219 340.175781 203.121094 339.472656 C 202.105469 339.035156 200.796875 339.140625 199.351562 339.976562 Z M 199.351562 339.976562 "/>
<path style=" stroke:none;fill-rule:nonzero;fill:rgb(35.686275%,75.686275%,86.666667%);fill-opacity:1;" d="M 204.046875 342.523438 C 204.046875 341.199219 203.699219 340.175781 203.117188 339.472656 C 202.105469 339.03125 200.796875 339.136719 199.351562 339.972656 C 196.191406 341.796875 193.609375 346.265625 193.609375 349.914062 L 193.609375 355.691406 "/>
<path style=" stroke:none;fill-rule:nonzero;fill:rgb(45.098039%,65.882353%,65.490196%);fill-opacity:1;" d="M 212.902344 374.921875 L 212.902344 388.300781 L 224.378906 381.671875 L 224.378906 368.292969 Z M 224.378906 354.675781 L 212.902344 361.296875 L 212.902344 373.121094 L 224.378906 366.496094 Z M 212.902344 359.5 L 224.378906 352.867188 L 224.378906 341.050781 L 212.902344 347.679688 Z M 224.378906 339.25 L 224.378906 332.105469 C 224.378906 328.460938 221.796875 326.972656 218.640625 328.792969 C 215.484375 330.621094 212.902344 335.085938 212.902344 338.730469 L 212.902344 345.878906 Z M 224.378906 339.25 "/>
<path style=" stroke:none;fill-rule:nonzero;fill:rgb(35.686275%,75.686275%,86.666667%);fill-opacity:1;" d="M 223.339844 380.90625 L 223.339844 368.898438 L 212.902344 374.921875 L 212.902344 386.933594 Z M 223.339844 380.90625 "/>
<path style=" stroke:none;fill-rule:nonzero;fill:rgb(35.686275%,75.686275%,86.666667%);fill-opacity:1;" d="M 223.339844 380.90625 L 223.339844 368.898438 L 212.902344 374.921875 L 212.902344 386.933594 Z M 223.339844 380.90625 "/>
<path style=" stroke:none;fill-rule:nonzero;fill:rgb(47.843137%,84.705882%,92.941176%);fill-opacity:1;" d="M 223.339844 380.90625 L 223.339844 368.898438 L 212.902344 374.921875 L 212.902344 386.933594 Z M 223.339844 380.90625 "/>
<path style=" stroke:none;fill-rule:nonzero;fill:rgb(35.686275%,75.686275%,86.666667%);fill-opacity:1;" d="M 223.339844 368.898438 L 212.902344 374.921875 L 212.902344 386.933594 "/>
<path style=" stroke:none;fill-rule:nonzero;fill:rgb(47.843137%,84.705882%,92.941176%);fill-opacity:1;" d="M 223.339844 365.722656 L 223.339844 355.277344 L 212.902344 361.296875 L 212.902344 371.753906 Z M 223.339844 365.722656 "/>
<path style=" stroke:none;fill-rule:nonzero;fill:rgb(35.686275%,75.686275%,86.666667%);fill-opacity:1;" d="M 223.339844 355.277344 L 212.902344 361.296875 L 212.902344 371.753906 "/>
<path style=" stroke:none;fill-rule:nonzero;fill:rgb(47.843137%,84.705882%,92.941176%);fill-opacity:1;" d="M 223.339844 352.105469 L 223.339844 341.648438 L 212.902344 347.679688 L 212.902344 358.132812 Z M 223.339844 352.105469 "/>
<path style=" stroke:none;fill-rule:nonzero;fill:rgb(35.686275%,75.686275%,86.666667%);fill-opacity:1;" d="M 223.339844 341.648438 L 212.902344 347.679688 L 212.902344 358.132812 "/>
<path style=" stroke:none;fill-rule:nonzero;fill:rgb(47.843137%,84.705882%,92.941176%);fill-opacity:1;" d="M 218.640625 328.789062 C 215.484375 330.617188 212.902344 335.082031 212.902344 338.730469 L 212.902344 344.507812 L 223.339844 338.480469 L 223.339844 331.335938 C 223.339844 330.011719 222.992188 328.992188 222.410156 328.289062 C 221.398438 327.847656 220.085938 327.957031 218.640625 328.789062 Z M 218.640625 328.789062 "/>
<path style=" stroke:none;fill-rule:nonzero;fill:rgb(35.686275%,75.686275%,86.666667%);fill-opacity:1;" d="M 223.339844 331.335938 C 223.339844 330.011719 222.992188 328.992188 222.410156 328.289062 C 221.402344 327.84375 220.089844 327.953125 218.644531 328.789062 C 215.488281 330.613281 212.90625 335.082031 212.90625 338.726562 L 212.90625 344.503906 "/>
<path style=" stroke:none;fill-rule:nonzero;fill:rgb(45.098039%,65.882353%,65.490196%);fill-opacity:1;" d="M 232.195312 363.734375 L 232.195312 377.113281 L 243.667969 370.488281 L 243.667969 357.109375 Z M 243.667969 343.488281 L 232.195312 350.113281 L 232.195312 361.933594 L 243.667969 355.308594 Z M 232.195312 348.3125 L 243.667969 341.683594 L 243.667969 329.867188 L 232.195312 336.488281 Z M 243.667969 328.0625 L 243.667969 320.917969 C 243.667969 317.269531 241.085938 315.785156 237.933594 317.601562 C 234.773438 319.429688 232.191406 323.898438 232.191406 327.539062 L 232.191406 334.6875 Z M 243.667969 328.0625 "/>
<path style=" stroke:none;fill-rule:nonzero;fill:rgb(35.686275%,75.686275%,86.666667%);fill-opacity:1;" d="M 242.628906 369.71875 L 242.628906 357.710938 L 232.195312 363.734375 L 232.195312 375.746094 Z M 242.628906 369.71875 "/>
<path style=" stroke:none;fill-rule:nonzero;fill:rgb(35.686275%,75.686275%,86.666667%);fill-opacity:1;" d="M 242.628906 369.71875 L 242.628906 357.710938 L 232.195312 363.734375 L 232.195312 375.746094 Z M 242.628906 369.71875 "/>
<path style=" stroke:none;fill-rule:nonzero;fill:rgb(47.843137%,84.705882%,92.941176%);fill-opacity:1;" d="M 242.628906 369.71875 L 242.628906 357.710938 L 232.195312 363.734375 L 232.195312 375.746094 Z M 242.628906 369.71875 "/>
<path style=" stroke:none;fill-rule:nonzero;fill:rgb(35.686275%,75.686275%,86.666667%);fill-opacity:1;" d="M 242.628906 357.710938 L 232.195312 363.734375 L 232.195312 375.746094 "/>
<path style=" stroke:none;fill-rule:nonzero;fill:rgb(47.843137%,84.705882%,92.941176%);fill-opacity:1;" d="M 242.628906 354.535156 L 242.628906 344.089844 L 232.195312 350.113281 L 232.195312 360.5625 Z M 242.628906 354.535156 "/>
<path style=" stroke:none;fill-rule:nonzero;fill:rgb(35.686275%,75.686275%,86.666667%);fill-opacity:1;" d="M 242.628906 344.089844 L 232.195312 350.113281 L 232.195312 360.5625 "/>
<path style=" stroke:none;fill-rule:nonzero;fill:rgb(47.843137%,84.705882%,92.941176%);fill-opacity:1;" d="M 242.628906 340.917969 L 242.628906 330.46875 L 232.195312 336.488281 L 232.195312 346.945312 Z M 242.628906 340.917969 "/>
<path style=" stroke:none;fill-rule:nonzero;fill:rgb(35.686275%,75.686275%,86.666667%);fill-opacity:1;" d="M 242.628906 330.46875 L 232.195312 336.488281 L 232.195312 346.945312 "/>
<path style=" stroke:none;fill-rule:nonzero;fill:rgb(47.843137%,84.705882%,92.941176%);fill-opacity:1;" d="M 237.933594 317.601562 C 234.777344 319.429688 232.195312 323.898438 232.195312 327.539062 L 232.195312 333.316406 L 242.628906 327.292969 L 242.628906 320.148438 C 242.628906 318.828125 242.285156 317.804688 241.703125 317.101562 C 240.6875 316.65625 239.378906 316.765625 237.933594 317.601562 Z M 237.933594 317.601562 "/>
<path style=" stroke:none;fill-rule:nonzero;fill:rgb(35.686275%,75.686275%,86.666667%);fill-opacity:1;" d="M 242.628906 320.148438 C 242.628906 318.832031 242.285156 317.808594 241.703125 317.105469 C 240.691406 316.65625 239.378906 316.765625 237.933594 317.601562 C 234.777344 319.429688 232.195312 323.898438 232.195312 327.539062 L 232.195312 333.316406 "/>
<path style=" stroke:none;fill-rule:nonzero;fill:rgb(50.196078%,71.764706%,70.196078%);fill-opacity:1;" d="M 157.742188 336.335938 C 159.910156 337.585938 161.6875 340.65625 161.6875 343.160156 L 161.6875 393.949219 L 153.804688 389.398438 L 153.804688 338.609375 C 153.804688 336.105469 155.582031 335.085938 157.742188 336.335938 Z M 157.742188 336.335938 "/>
<path style=" stroke:none;fill-rule:nonzero;fill:rgb(47.843137%,84.705882%,92.941176%);fill-opacity:1;" d="M 157.742188 336.335938 C 156.785156 335.785156 155.917969 335.695312 155.234375 335.960938 C 154.84375 336.445312 154.605469 337.140625 154.605469 338.039062 L 154.605469 388.828125 L 161.683594 392.910156 L 161.683594 343.160156 C 161.6875 340.65625 159.914062 337.585938 157.742188 336.335938 Z M 157.742188 336.335938 "/>
<path style=" stroke:none;fill-rule:nonzero;fill:rgb(38.039216%,80%,89.803922%);fill-opacity:1;" d="M 161.6875 392.910156 L 161.6875 343.160156 C 161.6875 340.65625 159.914062 337.585938 157.742188 336.335938 C 156.785156 335.785156 155.917969 335.695312 155.234375 335.960938 C 154.84375 336.445312 154.605469 337.140625 154.605469 338.039062 "/>
<path style=" stroke:none;fill-rule:nonzero;fill:rgb(50.196078%,71.764706%,70.196078%);fill-opacity:1;" d="M 169.03125 342.898438 C 171.199219 344.152344 172.972656 347.222656 172.972656 349.726562 L 172.972656 400.511719 L 165.09375 395.964844 L 165.09375 345.175781 C 165.09375 342.671875 166.867188 341.648438 169.03125 342.898438 Z M 169.03125 342.898438 "/>
<path style=" stroke:none;fill-rule:nonzero;fill:rgb(47.843137%,84.705882%,92.941176%);fill-opacity:1;" d="M 169.03125 342.898438 C 168.078125 342.34375 167.207031 342.257812 166.523438 342.523438 C 166.132812 343.007812 165.894531 343.703125 165.894531 344.597656 L 165.894531 395.386719 L 172.972656 399.476562 L 172.972656 349.726562 C 172.972656 347.21875 171.199219 344.152344 169.03125 342.898438 Z M 169.03125 342.898438 "/>
<path style=" stroke:none;fill-rule:nonzero;fill:rgb(38.039216%,80%,89.803922%);fill-opacity:1;" d="M 172.972656 399.476562 L 172.972656 349.726562 C 172.972656 347.21875 171.199219 344.152344 169.03125 342.898438 C 168.078125 342.34375 167.207031 342.257812 166.523438 342.523438 C 166.132812 343.007812 165.894531 343.703125 165.894531 344.597656 "/>
<path style=" stroke:none;fill-rule:nonzero;fill:rgb(50.196078%,71.764706%,70.196078%);fill-opacity:1;" d="M 116.152344 312.398438 C 118.320312 313.652344 120.09375 316.722656 120.09375 319.226562 L 120.09375 370.011719 L 112.214844 365.464844 L 112.214844 314.671875 C 112.214844 312.171875 113.988281 311.148438 116.152344 312.398438 Z M 116.152344 312.398438 "/>
<path style=" stroke:none;fill-rule:nonzero;fill:rgb(47.843137%,84.705882%,92.941176%);fill-opacity:1;" d="M 116.152344 312.398438 C 115.199219 311.84375 114.328125 311.761719 113.644531 312.023438 C 113.253906 312.507812 113.019531 313.203125 113.019531 314.097656 L 113.019531 364.886719 L 120.09375 368.976562 L 120.09375 319.226562 C 120.09375 316.722656 118.320312 313.652344 116.152344 312.398438 Z M 116.152344 312.398438 "/>
<path style=" stroke:none;fill-rule:nonzero;fill:rgb(38.039216%,80%,89.803922%);fill-opacity:1;" d="M 120.09375 368.976562 L 120.09375 319.226562 C 120.09375 316.71875 118.320312 313.652344 116.152344 312.398438 C 115.199219 311.84375 114.328125 311.761719 113.644531 312.023438 C 113.253906 312.507812 113.019531 313.203125 113.019531 314.097656 "/>
<path style=" stroke:none;fill-rule:nonzero;fill:rgb(50.196078%,71.764706%,70.196078%);fill-opacity:1;" d="M 127.441406 318.964844 C 129.609375 320.21875 131.382812 323.289062 131.382812 325.789062 L 131.382812 376.578125 L 123.503906 372.027344 L 123.503906 321.238281 C 123.5 318.734375 125.277344 317.710938 127.441406 318.964844 Z M 127.441406 318.964844 "/>
<path style=" stroke:none;fill-rule:nonzero;fill:rgb(47.843137%,84.705882%,92.941176%);fill-opacity:1;" d="M 127.441406 318.964844 C 126.484375 318.414062 125.617188 318.328125 124.929688 318.589844 C 124.539062 319.074219 124.304688 319.769531 124.304688 320.664062 L 124.304688 371.457031 L 131.382812 375.539062 L 131.382812 325.789062 C 131.382812 323.289062 129.609375 320.21875 127.441406 318.964844 Z M 127.441406 318.964844 "/>
<path style=" stroke:none;fill-rule:nonzero;fill:rgb(38.039216%,80%,89.803922%);fill-opacity:1;" d="M 131.382812 375.539062 L 131.382812 325.789062 C 131.382812 323.289062 129.609375 320.21875 127.441406 318.964844 C 126.484375 318.414062 125.617188 318.328125 124.929688 318.589844 C 124.539062 319.074219 124.304688 319.769531 124.304688 320.664062 "/>
<path style=" stroke:none;fill-rule:nonzero;fill:rgb(31.764706%,55.686275%,54.509804%);fill-opacity:1;" d="M 142.121094 347.769531 C 146.457031 350.277344 150.003906 356.414062 150.003906 361.414062 L 150.003906 393.328125 L 134.242188 384.230469 L 134.242188 352.316406 C 134.242188 347.3125 137.792969 345.269531 142.121094 347.769531 Z M 142.121094 347.769531 "/>
<path style=" stroke:none;fill-rule:nonzero;fill:rgb(53.72549%,39.607843%,18.823529%);fill-opacity:1;" d="M 142.121094 347.769531 C 140.175781 346.644531 138.410156 346.480469 137.03125 347.054688 C 135.976562 347.988281 135.316406 349.53125 135.316406 351.648438 L 135.316406 383.558594 L 150.003906 392.035156 L 150.003906 361.414062 C 150.003906 356.414062 146.457031 350.277344 142.121094 347.769531 Z M 142.121094 347.769531 "/>
<path style=" stroke:none;fill-rule:nonzero;fill:rgb(43.921569%,30.980392%,14.117647%);fill-opacity:1;" d="M 150.003906 392.035156 L 150.003906 361.414062 C 150.003906 356.414062 146.457031 350.277344 142.121094 347.769531 C 140.175781 346.644531 138.410156 346.480469 137.03125 347.054688 C 135.976562 347.988281 135.316406 349.53125 135.316406 351.648438 "/>
<path style=" stroke:none;fill-rule:nonzero;fill:rgb(31.764706%,55.686275%,54.509804%);fill-opacity:1;" d="M 135.316406 356.0625 L 150.003906 364.539062 L 150.003906 362.0625 L 135.316406 353.585938 Z M 135.316406 356.0625 "/>
<path style=" stroke:none;fill-rule:nonzero;fill:rgb(31.764706%,55.686275%,54.509804%);fill-opacity:1;" d="M 141.628906 387.203125 L 142.617188 387.777344 L 142.617188 358.445312 L 141.628906 358.445312 Z M 141.628906 387.203125 "/>
<path style=" stroke:none;fill-rule:nonzero;fill:rgb(45.098039%,65.882353%,65.490196%);fill-opacity:1;" d="M 143.164062 242.472656 L 143.164062 238.898438 C 143.164062 237.074219 144.460938 236.332031 146.035156 237.238281 C 147.613281 238.148438 148.902344 240.386719 148.902344 242.210938 L 148.902344 245.785156 Z M 143.164062 242.472656 "/>
<path style=" stroke:none;fill-rule:nonzero;fill:rgb(47.843137%,84.705882%,92.941176%);fill-opacity:1;" d="M 146.035156 237.238281 C 147.617188 238.152344 148.90625 240.390625 148.90625 242.214844 L 148.90625 245.101562 L 143.6875 242.085938 L 143.6875 238.511719 C 143.6875 237.851562 143.859375 237.339844 144.152344 236.988281 C 144.65625 236.769531 145.3125 236.824219 146.035156 237.238281 Z M 146.035156 237.238281 "/>
<path style=" stroke:none;fill-rule:nonzero;fill:rgb(35.686275%,75.686275%,86.666667%);fill-opacity:1;" d="M 143.6875 238.511719 C 143.6875 237.851562 143.859375 237.339844 144.148438 236.988281 C 144.65625 236.769531 145.3125 236.824219 146.035156 237.238281 C 147.613281 238.152344 148.902344 240.390625 148.902344 242.214844 L 148.902344 245.101562 "/>
<path style=" stroke:none;fill-rule:nonzero;fill:rgb(45.098039%,65.882353%,65.490196%);fill-opacity:1;" d="M 143.164062 256.394531 L 143.164062 252.820312 C 143.164062 250.996094 144.460938 250.253906 146.035156 251.160156 C 147.613281 252.074219 148.902344 254.308594 148.902344 256.128906 L 148.902344 259.707031 Z M 143.164062 256.394531 "/>
<path style=" stroke:none;fill-rule:nonzero;fill:rgb(47.843137%,84.705882%,92.941176%);fill-opacity:1;" d="M 146.035156 251.164062 C 147.617188 252.074219 148.90625 254.3125 148.90625 256.132812 L 148.90625 259.023438 L 143.6875 256.011719 L 143.6875 252.4375 C 143.6875 251.777344 143.859375 251.261719 144.152344 250.917969 C 144.65625 250.691406 145.3125 250.746094 146.035156 251.164062 Z M 146.035156 251.164062 "/>
<path style=" stroke:none;fill-rule:nonzero;fill:rgb(35.686275%,75.686275%,86.666667%);fill-opacity:1;" d="M 143.6875 252.4375 C 143.6875 251.777344 143.859375 251.261719 144.148438 250.917969 C 144.65625 250.691406 145.3125 250.746094 146.035156 251.164062 C 147.613281 252.074219 148.902344 254.3125 148.902344 256.132812 L 148.902344 259.023438 "/>
<path style=" stroke:none;fill-rule:nonzero;fill:rgb(45.098039%,65.882353%,65.490196%);fill-opacity:1;" d="M 143.164062 270.316406 L 143.164062 266.746094 C 143.164062 264.921875 144.460938 264.175781 146.035156 265.085938 C 147.613281 266 148.902344 268.234375 148.902344 270.054688 L 148.902344 273.628906 Z M 143.164062 270.316406 "/>
<path style=" stroke:none;fill-rule:nonzero;fill:rgb(47.843137%,84.705882%,92.941176%);fill-opacity:1;" d="M 146.035156 265.085938 C 147.617188 266 148.90625 268.234375 148.90625 270.054688 L 148.90625 272.941406 L 143.6875 269.933594 L 143.6875 266.359375 C 143.6875 265.699219 143.859375 265.1875 144.152344 264.832031 C 144.65625 264.613281 145.3125 264.667969 146.035156 265.085938 Z M 146.035156 265.085938 "/>
<path style=" stroke:none;fill-rule:nonzero;fill:rgb(35.686275%,75.686275%,86.666667%);fill-opacity:1;" d="M 143.6875 266.363281 C 143.6875 265.703125 143.859375 265.1875 144.148438 264.835938 C 144.65625 264.613281 145.3125 264.671875 146.035156 265.089844 C 147.613281 266 148.902344 268.238281 148.902344 270.058594 L 148.902344 272.945312 "/>
<path style=" stroke:none;fill-rule:nonzero;fill:rgb(45.098039%,65.882353%,65.490196%);fill-opacity:1;" d="M 143.164062 284.238281 L 143.164062 280.664062 C 143.164062 278.839844 144.460938 278.097656 146.035156 279.007812 C 147.613281 279.917969 148.902344 282.15625 148.902344 283.976562 L 148.902344 287.550781 Z M 143.164062 284.238281 "/>
<path style=" stroke:none;fill-rule:nonzero;fill:rgb(47.843137%,84.705882%,92.941176%);fill-opacity:1;" d="M 146.035156 279.007812 C 147.617188 279.921875 148.90625 282.15625 148.90625 283.980469 L 148.90625 286.871094 L 143.6875 283.855469 L 143.6875 280.28125 C 143.6875 279.621094 143.859375 279.109375 144.152344 278.757812 C 144.65625 278.535156 145.3125 278.589844 146.035156 279.007812 Z M 146.035156 279.007812 "/>
<path style=" stroke:none;fill-rule:nonzero;fill:rgb(35.686275%,75.686275%,86.666667%);fill-opacity:1;" d="M 143.6875 280.28125 C 143.6875 279.621094 143.859375 279.109375 144.148438 278.757812 C 144.65625 278.535156 145.3125 278.589844 146.035156 279.007812 C 147.613281 279.921875 148.902344 282.15625 148.902344 283.980469 L 148.902344 286.871094 "/>
<path style=" stroke:none;fill-rule:nonzero;fill:rgb(38.039216%,60%,58.039216%);fill-opacity:1;" d="M 133.738281 387.40625 L 120.234375 395.207031 C 117.757812 396.628906 117.757812 398.972656 120.234375 400.40625 L 129.238281 405.605469 C 131.710938 407.03125 135.761719 407.03125 138.238281 405.605469 L 151.742188 397.808594 Z M 133.738281 387.40625 "/>
<path style=" stroke:none;fill-rule:nonzero;fill:rgb(38.039216%,60%,58.039216%);fill-opacity:1;" d="M 118.378906 396.65625 L 151.746094 396.65625 L 151.746094 397.75 L 118.378906 397.75 Z M 118.378906 396.65625 "/>
<path style=" stroke:none;fill-rule:nonzero;fill:rgb(50.196078%,71.764706%,70.196078%);fill-opacity:1;" d="M 133.738281 386.222656 L 120.234375 394.011719 C 117.757812 395.445312 117.757812 397.785156 120.234375 399.210938 L 129.238281 404.414062 C 131.710938 405.84375 135.761719 405.84375 138.238281 404.414062 L 151.742188 396.613281 Z M 133.738281 386.222656 "/>
<path style=" stroke:none;fill-rule:nonzero;fill:rgb(38.039216%,60%,58.039216%);fill-opacity:1;" d="M 133.820312 386.316406 L 121.152344 393.628906 C 118.835938 394.96875 118.835938 397.160156 121.15625 398.507812 L 129.601562 403.382812 C 131.917969 404.722656 135.71875 404.722656 138.042969 403.382812 L 150.707031 396.070312 Z M 133.820312 386.316406 "/>
<path style=" stroke:none;fill-rule:nonzero;fill:rgb(38.039216%,60%,58.039216%);fill-opacity:1;" d="M 119.417969 394.992188 L 150.707031 394.992188 L 150.707031 396.019531 L 119.417969 396.019531 Z M 119.417969 394.992188 "/>
<path style=" stroke:none;fill-rule:nonzero;fill:rgb(55.686275%,74.901961%,74.901961%);fill-opacity:1;" d="M 133.820312 385.203125 L 121.152344 392.511719 C 118.835938 393.855469 118.835938 396.046875 121.15625 397.390625 L 129.601562 402.265625 C 131.917969 403.605469 135.71875 403.605469 138.042969 402.265625 L 150.707031 394.953125 Z M 133.820312 385.203125 "/>
<path style=" stroke:none;fill-rule:nonzero;fill:rgb(38.039216%,60%,58.039216%);fill-opacity:1;" d="M 134.21875 385.390625 L 122.46875 392.183594 C 120.316406 393.417969 120.316406 395.464844 122.46875 396.703125 L 130.300781 401.226562 C 132.457031 402.46875 135.980469 402.46875 138.136719 401.226562 L 149.886719 394.441406 Z M 134.21875 385.390625 "/>
<path style=" stroke:none;fill-rule:nonzero;fill:rgb(38.039216%,60%,58.039216%);fill-opacity:1;" d="M 120.855469 393.441406 L 149.886719 393.441406 L 149.886719 394.394531 L 120.855469 394.394531 Z M 120.855469 393.441406 "/>
<path style=" stroke:none;fill-rule:nonzero;fill:rgb(60.784314%,82.745098%,81.960784%);fill-opacity:1;" d="M 134.21875 384.363281 L 122.46875 391.144531 C 120.316406 392.386719 120.316406 394.421875 122.46875 395.667969 L 130.300781 400.191406 C 132.457031 401.433594 135.980469 401.433594 138.136719 400.191406 L 149.886719 393.40625 Z M 134.21875 384.363281 "/>
<path style=" stroke:none;fill-rule:nonzero;fill:rgb(45.882353%,20.392157%,42.352941%);fill-opacity:1;" d="M 151.449219 215.695312 C 151.097656 215.695312 150.8125 215.410156 150.8125 215.058594 L 150.8125 207.351562 C 150.8125 207.003906 151.097656 206.71875 151.449219 206.71875 C 151.796875 206.71875 152.085938 207.003906 152.085938 207.351562 L 152.085938 215.058594 C 152.082031 215.410156 151.796875 215.695312 151.449219 215.695312 Z M 151.449219 215.695312 "/>
<path style=" stroke:none;fill-rule:nonzero;fill:rgb(66.666667%,32.54902%,65.098039%);fill-opacity:1;" d="M 152.882812 200.484375 L 152.882812 197.167969 L 150.007812 195.507812 L 150.007812 198.828125 L 147.140625 197.167969 L 147.140625 200.484375 L 150.007812 202.140625 L 150.007812 208.765625 L 152.882812 210.425781 L 152.882812 203.792969 L 155.753906 205.449219 L 155.753906 202.140625 Z M 152.882812 200.484375 "/>
<path style=" stroke:none;fill-rule:nonzero;fill:rgb(31.764706%,55.686275%,54.509804%);fill-opacity:1;" d="M 215.667969 220.925781 L 215.667969 214.53125 L 210.132812 211.335938 L 210.132812 217.726562 L 204.597656 214.53125 L 204.597656 220.925781 L 210.132812 224.121094 L 210.132812 236.898438 L 215.667969 240.09375 L 215.667969 227.3125 L 221.203125 230.507812 L 221.203125 224.121094 Z M 215.667969 220.925781 "/>
<path style=" stroke:none;fill-rule:nonzero;fill:rgb(35.686275%,75.686275%,86.666667%);fill-opacity:1;" d="M 215.667969 220.925781 L 215.667969 214.53125 L 210.714844 211.671875 L 210.714844 217.367188 L 210.132812 217.726562 L 205.179688 214.863281 L 205.179688 220.566406 L 210.71875 223.761719 L 210.714844 236.542969 L 215.667969 239.40625 L 215.667969 227.3125 L 216.25 226.960938 L 221.203125 229.816406 L 221.203125 224.121094 Z M 215.667969 220.925781 "/>
<path style=" stroke:none;fill-rule:nonzero;fill:rgb(30.588235%,67.058824%,80%);fill-opacity:1;" d="M 221.203125 224.121094 L 215.667969 220.925781 L 215.667969 214.53125 L 210.714844 211.671875 L 210.714844 217.367188 L 210.132812 217.726562 L 205.179688 214.863281 L 205.179688 215.09375 L 210.414062 223.585938 L 210.71875 223.761719 L 210.71875 224.078125 L 215.667969 232.113281 L 215.667969 227.3125 L 216.25 226.960938 L 221.203125 229.816406 Z M 221.203125 224.121094 "/>
<path style=" stroke:none;fill-rule:nonzero;fill:rgb(50.196078%,71.764706%,70.196078%);fill-opacity:1;" d="M 319.585938 264.148438 C 316.1875 266.113281 313.40625 270.921875 313.40625 274.851562 L 313.40625 354.472656 L 325.761719 347.34375 L 325.761719 267.714844 C 325.761719 263.789062 322.980469 262.183594 319.585938 264.148438 Z M 319.585938 264.148438 "/>
<path style=" stroke:none;fill-rule:nonzero;fill:rgb(47.843137%,84.705882%,92.941176%);fill-opacity:1;" d="M 319.585938 264.148438 C 321.085938 263.28125 322.445312 263.144531 323.523438 263.558594 C 324.132812 264.316406 324.5 265.40625 324.5 266.808594 L 324.5 346.441406 L 313.40625 352.839844 L 313.40625 274.851562 C 313.40625 270.921875 316.1875 266.113281 319.585938 264.148438 Z M 319.585938 264.148438 "/>
<path style=" stroke:none;fill-rule:nonzero;fill:rgb(38.039216%,80%,89.803922%);fill-opacity:1;" d="M 313.40625 352.84375 L 313.40625 274.851562 C 313.40625 270.921875 316.1875 266.109375 319.585938 264.148438 C 321.085938 263.28125 322.445312 263.144531 323.523438 263.558594 C 324.132812 264.316406 324.5 265.40625 324.5 266.808594 "/>
<path style=" stroke:none;fill-rule:nonzero;fill:rgb(50.196078%,71.764706%,70.196078%);fill-opacity:1;" d="M 301.886719 274.4375 C 298.492188 276.410156 295.714844 281.214844 295.714844 285.136719 L 295.714844 364.765625 L 308.0625 357.636719 L 308.0625 278.007812 C 308.0625 274.085938 305.28125 272.480469 301.886719 274.4375 Z M 301.886719 274.4375 "/>
<path style=" stroke:none;fill-rule:nonzero;fill:rgb(47.843137%,84.705882%,92.941176%);fill-opacity:1;" d="M 301.886719 274.4375 C 303.386719 273.566406 304.75 273.433594 305.824219 273.851562 C 306.4375 274.605469 306.804688 275.695312 306.804688 277.101562 L 306.804688 356.730469 L 295.714844 363.132812 L 295.714844 285.140625 C 295.714844 281.214844 298.492188 276.410156 301.886719 274.4375 Z M 301.886719 274.4375 "/>
<path style=" stroke:none;fill-rule:nonzero;fill:rgb(38.039216%,80%,89.803922%);fill-opacity:1;" d="M 295.714844 363.136719 L 295.714844 285.140625 C 295.714844 281.21875 298.492188 276.410156 301.886719 274.441406 C 303.386719 273.570312 304.75 273.4375 305.824219 273.855469 C 306.4375 274.609375 306.804688 275.699219 306.804688 277.101562 "/>
<path style=" stroke:none;fill-rule:nonzero;fill:rgb(50.196078%,71.764706%,70.196078%);fill-opacity:1;" d="M 368.707031 235.945312 C 365.308594 237.910156 362.527344 242.722656 362.527344 246.652344 L 362.527344 326.273438 L 374.882812 319.144531 L 374.882812 239.515625 C 374.882812 235.589844 372.101562 233.984375 368.707031 235.945312 Z M 368.707031 235.945312 "/>
<path style=" stroke:none;fill-rule:nonzero;fill:rgb(47.843137%,84.705882%,92.941176%);fill-opacity:1;" d="M 368.707031 235.945312 C 370.207031 235.082031 371.570312 234.945312 372.644531 235.359375 C 373.253906 236.117188 373.621094 237.203125 373.621094 238.609375 L 373.621094 318.242188 L 362.527344 324.640625 L 362.527344 246.652344 C 362.527344 242.722656 365.304688 237.910156 368.707031 235.945312 Z M 368.707031 235.945312 "/>
<path style=" stroke:none;fill-rule:nonzero;fill:rgb(38.039216%,80%,89.803922%);fill-opacity:1;" d="M 362.527344 324.640625 L 362.527344 246.652344 C 362.527344 242.722656 365.304688 237.90625 368.707031 235.945312 C 370.207031 235.082031 371.566406 234.945312 372.640625 235.359375 C 373.25 236.117188 373.621094 237.203125 373.621094 238.609375 "/>
<path style=" stroke:none;fill-rule:nonzero;fill:rgb(50.196078%,71.764706%,70.196078%);fill-opacity:1;" d="M 351.007812 246.238281 C 347.609375 248.203125 344.832031 253.011719 344.832031 256.9375 L 344.832031 336.566406 L 357.179688 329.433594 L 357.179688 249.808594 C 357.183594 245.878906 354.402344 244.28125 351.007812 246.238281 Z M 351.007812 246.238281 "/>
<path style=" stroke:none;fill-rule:nonzero;fill:rgb(47.843137%,84.705882%,92.941176%);fill-opacity:1;" d="M 351.007812 246.238281 C 352.507812 245.367188 353.871094 245.234375 354.945312 245.652344 C 355.558594 246.40625 355.925781 247.496094 355.925781 248.902344 L 355.925781 328.53125 L 344.832031 334.933594 L 344.832031 256.9375 C 344.832031 253.011719 347.609375 248.203125 351.007812 246.238281 Z M 351.007812 246.238281 "/>
<path style=" stroke:none;fill-rule:nonzero;fill:rgb(38.039216%,80%,89.803922%);fill-opacity:1;" d="M 344.832031 334.9375 L 344.832031 256.9375 C 344.832031 253.011719 347.609375 248.203125 351.007812 246.238281 C 352.507812 245.367188 353.871094 245.234375 354.945312 245.652344 C 355.558594 246.40625 355.925781 247.496094 355.925781 248.898438 "/>
</g>
</svg>
