<?xml version="1.0" encoding="UTF-8"?>
<svg xmlns="http://www.w3.org/2000/svg" xmlns:xlink="http://www.w3.org/1999/xlink" width="100pt" height="100pt" viewBox="0 0 100 100" version="1.1">
<g id="surface152844">
<path style=" stroke:none;fill-rule:nonzero;fill:rgb(40%,40%,40%);fill-opacity:1;" d="M 4 100 C 1.789062 100 0 98.210938 0 96 L 0 4 C 0 1.789062 1.789062 0 4 0 L 96 0 C 98.210938 0 100 1.789062 100 4 L 100 96 C 100 98.210938 98.210938 100 96 100 Z M 94 98 C 96.210938 98 98 96.210938 98 94 L 98 6 C 98 3.789062 96.210938 2 94 2 L 6 2 C 3.789062 2 2 3.789062 2 6 L 2 94 C 2 96.210938 3.789062 98 6 98 Z M 94 98 "/>
<path style=" stroke:none;fill-rule:nonzero;fill:rgb(81.176471%,89.803922%,89.803922%);fill-opacity:1;" d="M 75.835938 24.421875 L 75.835938 40.707031 L 78.90625 42.476562 L 78.90625 26.191406 Z M 75.835938 24.421875 "/>
<path style=" stroke:none;fill-rule:nonzero;fill:rgb(74.117647%,85.490196%,85.882353%);fill-opacity:1;" d="M 78.90625 42.476562 L 78.90625 26.191406 L 75.835938 24.421875 "/>
<path style=" stroke:none;fill-rule:nonzero;fill:rgb(55.686275%,74.901961%,74.901961%);fill-opacity:1;" d="M 81.976562 24.421875 L 81.976562 40.707031 L 78.90625 42.476562 L 78.90625 26.191406 Z M 81.976562 24.421875 "/>
<path style=" stroke:none;fill-rule:nonzero;fill:rgb(50.196078%,71.764706%,70.196078%);fill-opacity:1;" d="M 78.90625 42.476562 L 78.90625 26.191406 L 81.976562 24.421875 "/>
<path style=" stroke:none;fill-rule:nonzero;fill:rgb(45.882353%,20.392157%,42.352941%);fill-opacity:1;" d="M 78.90625 19.105469 L 78.90625 26.191406 L 81.976562 24.421875 Z M 78.90625 19.105469 "/>
<path style=" stroke:none;fill-rule:nonzero;fill:rgb(66.666667%,32.54902%,65.098039%);fill-opacity:1;" d="M 78.90625 19.105469 L 78.90625 26.191406 L 75.835938 24.421875 Z M 78.90625 19.105469 "/>
<path style=" stroke:none;fill-rule:nonzero;fill:rgb(45.098039%,65.882353%,65.490196%);fill-opacity:1;" d="M 76.421875 27.671875 L 76.421875 26.601562 C 76.421875 26.054688 76.8125 25.832031 77.285156 26.105469 C 77.757812 26.378906 78.144531 27.046875 78.144531 27.59375 L 78.144531 28.664062 Z M 76.421875 27.671875 "/>
<path style=" stroke:none;fill-rule:nonzero;fill:rgb(47.843137%,84.705882%,92.941176%);fill-opacity:1;" d="M 77.285156 26.105469 C 77.757812 26.378906 78.144531 27.046875 78.144531 27.59375 L 78.144531 28.460938 L 76.578125 27.558594 L 76.578125 26.484375 C 76.578125 26.289062 76.628906 26.132812 76.71875 26.027344 C 76.871094 25.960938 77.066406 25.980469 77.285156 26.105469 Z M 77.285156 26.105469 "/>
<path style=" stroke:none;fill-rule:nonzero;fill:rgb(35.686275%,75.686275%,86.666667%);fill-opacity:1;" d="M 76.578125 26.484375 C 76.578125 26.289062 76.632812 26.132812 76.71875 26.027344 C 76.871094 25.960938 77.066406 25.976562 77.285156 26.105469 C 77.757812 26.378906 78.144531 27.046875 78.144531 27.59375 L 78.144531 28.460938 "/>
<path style=" stroke:none;fill-rule:nonzero;fill:rgb(81.176471%,89.803922%,89.803922%);fill-opacity:1;" d="M 56.585938 17.535156 L 56.585938 33.820312 L 59.65625 35.589844 L 59.65625 19.304688 Z M 56.585938 17.535156 "/>
<path style=" stroke:none;fill-rule:nonzero;fill:rgb(74.117647%,85.490196%,85.882353%);fill-opacity:1;" d="M 59.65625 35.589844 L 59.65625 19.304688 L 56.585938 17.535156 "/>
<path style=" stroke:none;fill-rule:nonzero;fill:rgb(55.686275%,74.901961%,74.901961%);fill-opacity:1;" d="M 62.726562 17.535156 L 62.726562 33.820312 L 59.65625 35.589844 L 59.65625 19.304688 Z M 62.726562 17.535156 "/>
<path style=" stroke:none;fill-rule:nonzero;fill:rgb(50.196078%,71.764706%,70.196078%);fill-opacity:1;" d="M 59.65625 35.589844 L 59.65625 19.304688 L 62.726562 17.535156 "/>
<path style=" stroke:none;fill-rule:nonzero;fill:rgb(45.882353%,20.392157%,42.352941%);fill-opacity:1;" d="M 59.65625 12.21875 L 59.65625 19.304688 L 62.726562 17.535156 Z M 59.65625 12.21875 "/>
<path style=" stroke:none;fill-rule:nonzero;fill:rgb(66.666667%,32.54902%,65.098039%);fill-opacity:1;" d="M 59.65625 12.21875 L 59.65625 19.304688 L 56.585938 17.535156 Z M 59.65625 12.21875 "/>
<path style=" stroke:none;fill-rule:nonzero;fill:rgb(45.098039%,65.882353%,65.490196%);fill-opacity:1;" d="M 57.171875 20.785156 L 57.171875 19.710938 C 57.171875 19.167969 57.5625 18.945312 58.035156 19.214844 C 58.507812 19.492188 58.894531 20.160156 58.894531 20.707031 L 58.894531 21.777344 Z M 57.171875 20.785156 "/>
<path style=" stroke:none;fill-rule:nonzero;fill:rgb(47.843137%,84.705882%,92.941176%);fill-opacity:1;" d="M 58.035156 19.214844 C 58.507812 19.492188 58.894531 20.160156 58.894531 20.707031 L 58.894531 21.574219 L 57.328125 20.667969 L 57.328125 19.597656 C 57.328125 19.402344 57.382812 19.246094 57.46875 19.140625 C 57.621094 19.074219 57.816406 19.09375 58.035156 19.214844 Z M 58.035156 19.214844 "/>
<path style=" stroke:none;fill-rule:nonzero;fill:rgb(35.686275%,75.686275%,86.666667%);fill-opacity:1;" d="M 57.328125 19.597656 C 57.328125 19.402344 57.382812 19.246094 57.46875 19.140625 C 57.621094 19.074219 57.816406 19.089844 58.035156 19.214844 C 58.507812 19.492188 58.894531 20.160156 58.894531 20.707031 L 58.894531 21.574219 "/>
<path style=" stroke:none;fill-rule:nonzero;fill:rgb(74.117647%,85.490196%,85.882353%);fill-opacity:1;" d="M 31.132812 66.636719 L 56.554688 81.3125 L 56.554688 57.5625 L 41.980469 40.8125 L 31.132812 42.882812 Z M 31.132812 66.636719 "/>
<path style=" stroke:none;fill-rule:nonzero;fill:rgb(55.686275%,74.901961%,74.901961%);fill-opacity:1;" d="M 56.554688 57.5625 L 81.976562 42.882812 L 81.976562 66.636719 L 56.554688 81.3125 Z M 56.554688 57.5625 "/>
<path style=" stroke:none;fill-rule:nonzero;fill:rgb(74.117647%,85.490196%,85.882353%);fill-opacity:1;" d="M 31.132812 64.433594 L 56.554688 79.109375 L 56.554688 55.355469 L 41.980469 38.605469 L 31.132812 40.675781 Z M 31.132812 64.433594 "/>
<path style=" stroke:none;fill-rule:nonzero;fill:rgb(55.686275%,74.901961%,74.901961%);fill-opacity:1;" d="M 56.554688 55.355469 L 41.980469 38.605469 L 31.132812 40.675781 M 56.554688 55.355469 L 81.976562 40.675781 L 81.976562 64.433594 L 56.554688 79.109375 Z M 56.554688 55.355469 "/>
<path style=" stroke:none;fill-rule:nonzero;fill:rgb(45.490196%,66.666667%,64.705882%);fill-opacity:1;" d="M 56.554688 79.109375 L 56.554688 55.355469 L 81.976562 40.675781 "/>
<path style=" stroke:none;fill-rule:nonzero;fill:rgb(45.882353%,20.392157%,42.352941%);fill-opacity:1;" d="M 41.980469 38.605469 L 67.449219 23.90625 L 81.976562 40.675781 L 56.554688 55.355469 Z M 41.980469 38.605469 "/>
<path style=" stroke:none;fill-rule:nonzero;fill:rgb(37.647059%,16.862745%,33.72549%);fill-opacity:1;" d="M 56.554688 55.355469 L 41.980469 38.605469 L 67.449219 23.90625 "/>
<path style=" stroke:none;fill-rule:nonzero;fill:rgb(66.666667%,32.54902%,65.098039%);fill-opacity:1;" d="M 67.449219 23.90625 L 56.554688 26 L 31.132812 40.675781 L 41.980469 38.605469 Z M 67.449219 23.90625 "/>
<path style=" stroke:none;fill-rule:nonzero;fill:rgb(57.647059%,26.666667%,54.901961%);fill-opacity:1;" d="M 31.132812 40.675781 L 41.980469 38.605469 L 67.449219 23.90625 "/>
<path style=" stroke:none;fill-rule:nonzero;fill:rgb(40.784314%,16.078431%,38.431373%);fill-opacity:1;" d="M 46.851562 44.207031 L 72.304688 29.511719 L 70.507812 27.433594 L 45.046875 42.132812 Z M 50.714844 48.644531 L 76.15625 33.957031 L 74.355469 31.882812 L 48.910156 46.574219 Z M 54.578125 53.085938 L 80.003906 38.402344 L 78.207031 36.328125 L 52.773438 51.011719 Z M 54.578125 53.085938 "/>
<path style=" stroke:none;fill-rule:nonzero;fill:rgb(55.686275%,74.901961%,74.901961%);fill-opacity:1;" d="M 17.34375 78.21875 L 34.34375 88.03125 L 34.34375 72.148438 L 24.597656 60.949219 L 17.34375 62.332031 Z M 17.34375 78.21875 "/>
<path style=" stroke:none;fill-rule:nonzero;fill:rgb(45.098039%,65.882353%,65.490196%);fill-opacity:1;" d="M 34.34375 72.148438 L 51.34375 62.332031 L 51.34375 78.21875 L 34.34375 88.03125 Z M 34.34375 72.148438 "/>
<path style=" stroke:none;fill-rule:nonzero;fill:rgb(74.117647%,85.490196%,85.882353%);fill-opacity:1;" d="M 17.34375 76.746094 L 34.34375 86.5625 L 34.34375 70.675781 L 24.597656 59.476562 L 17.34375 60.859375 Z M 17.34375 76.746094 "/>
<path style=" stroke:none;fill-rule:nonzero;fill:rgb(55.686275%,74.901961%,74.901961%);fill-opacity:1;" d="M 34.34375 70.675781 L 24.597656 59.476562 L 17.34375 60.859375 M 34.34375 70.675781 L 51.34375 60.859375 L 51.34375 76.746094 L 34.34375 86.5625 Z M 34.34375 70.675781 "/>
<path style=" stroke:none;fill-rule:nonzero;fill:rgb(45.490196%,66.666667%,64.705882%);fill-opacity:1;" d="M 34.34375 86.5625 L 34.34375 70.675781 L 51.34375 60.859375 "/>
<path style=" stroke:none;fill-rule:nonzero;fill:rgb(45.882353%,20.392157%,42.352941%);fill-opacity:1;" d="M 24.597656 59.476562 L 41.628906 49.644531 L 51.34375 60.859375 L 34.34375 70.675781 Z M 24.597656 59.476562 "/>
<path style=" stroke:none;fill-rule:nonzero;fill:rgb(37.647059%,16.862745%,33.72549%);fill-opacity:1;" d="M 34.34375 70.675781 L 24.597656 59.476562 L 41.628906 49.644531 "/>
<path style=" stroke:none;fill-rule:nonzero;fill:rgb(66.666667%,32.54902%,65.098039%);fill-opacity:1;" d="M 41.628906 49.644531 L 34.34375 51.046875 L 17.34375 60.859375 L 24.597656 59.476562 Z M 41.628906 49.644531 "/>
<path style=" stroke:none;fill-rule:nonzero;fill:rgb(57.647059%,26.666667%,54.901961%);fill-opacity:1;" d="M 17.34375 60.859375 L 24.597656 59.476562 L 41.628906 49.644531 "/>
<path style=" stroke:none;fill-rule:nonzero;fill:rgb(29.803922%,13.333333%,27.45098%);fill-opacity:1;" d="M 25.042969 59.988281 L 29.75 65.398438 L 29.75 56.5 L 25.042969 59.21875 Z M 25.042969 59.988281 "/>
<path style=" stroke:none;fill-rule:nonzero;fill:rgb(81.176471%,89.803922%,89.803922%);fill-opacity:1;" d="M 25.042969 45.757812 L 25.042969 58.246094 L 27.398438 59.601562 L 27.398438 47.117188 Z M 25.042969 45.757812 "/>
<path style=" stroke:none;fill-rule:nonzero;fill:rgb(74.117647%,85.490196%,85.882353%);fill-opacity:1;" d="M 27.398438 59.601562 L 27.398438 47.117188 L 25.042969 45.757812 "/>
<path style=" stroke:none;fill-rule:nonzero;fill:rgb(55.686275%,74.901961%,74.901961%);fill-opacity:1;" d="M 29.75 45.757812 L 29.75 58.246094 L 27.398438 59.601562 L 27.398438 47.117188 Z M 29.75 45.757812 "/>
<path style=" stroke:none;fill-rule:nonzero;fill:rgb(50.196078%,71.764706%,70.196078%);fill-opacity:1;" d="M 27.398438 59.601562 L 27.398438 47.117188 L 29.75 45.757812 "/>
<path style=" stroke:none;fill-rule:nonzero;fill:rgb(45.882353%,20.392157%,42.352941%);fill-opacity:1;" d="M 27.398438 41.679688 L 27.398438 47.117188 L 29.75 45.757812 Z M 27.398438 41.679688 "/>
<path style=" stroke:none;fill-rule:nonzero;fill:rgb(66.666667%,32.54902%,65.098039%);fill-opacity:1;" d="M 27.398438 41.679688 L 27.398438 47.117188 L 25.042969 45.757812 Z M 27.398438 41.679688 "/>
<path style=" stroke:none;fill-rule:nonzero;fill:rgb(31.764706%,55.686275%,54.509804%);fill-opacity:1;" d="M 25.679688 63.902344 L 25.679688 62.429688 L 24.410156 61.695312 L 24.410156 63.167969 L 23.136719 62.429688 L 23.136719 63.902344 L 24.410156 64.632812 L 24.410156 67.574219 L 25.679688 68.308594 L 25.679688 65.367188 L 26.953125 66.105469 L 26.953125 64.632812 Z M 25.679688 63.902344 "/>
<path style=" stroke:none;fill-rule:nonzero;fill:rgb(35.686275%,75.686275%,86.666667%);fill-opacity:1;" d="M 25.679688 63.902344 L 25.679688 62.429688 L 24.542969 61.773438 L 24.542969 63.082031 L 24.410156 63.167969 L 23.269531 62.507812 L 23.269531 63.820312 L 24.542969 64.554688 L 24.542969 67.492188 L 25.679688 68.148438 L 25.679688 65.367188 L 25.8125 65.289062 L 26.953125 65.945312 L 26.953125 64.632812 Z M 25.679688 63.902344 "/>
<path style=" stroke:none;fill-rule:nonzero;fill:rgb(30.588235%,67.058824%,80%);fill-opacity:1;" d="M 26.953125 64.632812 L 25.679688 63.902344 L 25.679688 62.429688 L 24.542969 61.773438 L 24.542969 63.082031 L 24.410156 63.167969 L 23.269531 62.507812 L 23.269531 62.5625 L 24.472656 64.511719 L 24.542969 64.554688 L 24.542969 64.625 L 25.679688 66.472656 L 25.679688 65.367188 L 25.8125 65.289062 L 26.953125 65.945312 Z M 26.953125 64.632812 "/>
<path style=" stroke:none;fill-rule:nonzero;fill:rgb(40.784314%,16.078431%,38.431373%);fill-opacity:1;" d="M 27.855469 63.21875 L 44.875 53.390625 L 43.671875 52.003906 L 26.648438 61.832031 Z M 30.4375 66.1875 L 47.449219 56.367188 L 46.25 54.976562 L 29.234375 64.800781 Z M 33.023438 69.15625 L 50.027344 59.339844 L 48.824219 57.953125 L 31.816406 67.769531 Z M 33.023438 69.15625 "/>
<path style=" stroke:none;fill-rule:nonzero;fill:rgb(45.098039%,65.882353%,65.490196%);fill-opacity:1;" d="M 37.089844 81.265625 L 37.089844 84.339844 L 39.726562 82.816406 L 39.726562 79.742188 Z M 39.726562 76.613281 L 37.089844 78.136719 L 37.089844 80.851562 L 39.726562 79.328125 Z M 37.089844 77.722656 L 39.726562 76.199219 L 39.726562 73.480469 L 37.089844 75.003906 Z M 39.726562 73.066406 L 39.726562 71.425781 C 39.726562 70.585938 39.132812 70.246094 38.410156 70.664062 C 37.683594 71.082031 37.089844 72.109375 37.089844 72.949219 L 37.089844 74.589844 Z M 39.726562 73.066406 "/>
<path style=" stroke:none;fill-rule:nonzero;fill:rgb(35.686275%,75.686275%,86.666667%);fill-opacity:1;" d="M 39.488281 82.640625 L 39.488281 79.878906 L 37.089844 81.265625 L 37.089844 84.027344 Z M 39.488281 82.640625 "/>
<path style=" stroke:none;fill-rule:nonzero;fill:rgb(35.686275%,75.686275%,86.666667%);fill-opacity:1;" d="M 39.488281 82.640625 L 39.488281 79.878906 L 37.089844 81.265625 L 37.089844 84.027344 Z M 39.488281 82.640625 "/>
<path style=" stroke:none;fill-rule:nonzero;fill:rgb(47.843137%,84.705882%,92.941176%);fill-opacity:1;" d="M 39.488281 82.640625 L 39.488281 79.878906 L 37.089844 81.265625 L 37.089844 84.027344 Z M 39.488281 82.640625 "/>
<path style=" stroke:none;fill-rule:nonzero;fill:rgb(35.686275%,75.686275%,86.666667%);fill-opacity:1;" d="M 39.488281 79.878906 L 37.089844 81.265625 L 37.089844 84.027344 "/>
<path style=" stroke:none;fill-rule:nonzero;fill:rgb(47.843137%,84.705882%,92.941176%);fill-opacity:1;" d="M 39.488281 79.152344 L 39.488281 76.75 L 37.089844 78.136719 L 37.089844 80.539062 Z M 39.488281 79.152344 "/>
<path style=" stroke:none;fill-rule:nonzero;fill:rgb(35.686275%,75.686275%,86.666667%);fill-opacity:1;" d="M 39.488281 76.75 L 37.089844 78.136719 L 37.089844 80.539062 "/>
<path style=" stroke:none;fill-rule:nonzero;fill:rgb(47.843137%,84.705882%,92.941176%);fill-opacity:1;" d="M 39.488281 76.019531 L 39.488281 73.617188 L 37.089844 75.003906 L 37.089844 77.40625 Z M 39.488281 76.019531 "/>
<path style=" stroke:none;fill-rule:nonzero;fill:rgb(35.686275%,75.686275%,86.666667%);fill-opacity:1;" d="M 39.488281 73.617188 L 37.089844 75.003906 L 37.089844 77.40625 "/>
<path style=" stroke:none;fill-rule:nonzero;fill:rgb(47.843137%,84.705882%,92.941176%);fill-opacity:1;" d="M 38.410156 70.664062 C 37.683594 71.082031 37.089844 72.109375 37.089844 72.945312 L 37.089844 74.273438 L 39.488281 72.890625 L 39.488281 71.246094 C 39.488281 70.945312 39.410156 70.707031 39.277344 70.546875 C 39.042969 70.445312 38.742188 70.46875 38.410156 70.664062 Z M 38.410156 70.664062 "/>
<path style=" stroke:none;fill-rule:nonzero;fill:rgb(35.686275%,75.686275%,86.666667%);fill-opacity:1;" d="M 39.488281 71.246094 C 39.488281 70.945312 39.40625 70.707031 39.273438 70.546875 C 39.042969 70.445312 38.742188 70.46875 38.410156 70.660156 C 37.683594 71.082031 37.089844 72.109375 37.089844 72.945312 L 37.089844 74.273438 "/>
<path style=" stroke:none;fill-rule:nonzero;fill:rgb(45.098039%,65.882353%,65.490196%);fill-opacity:1;" d="M 41.523438 78.695312 L 41.523438 81.769531 L 44.160156 80.246094 L 44.160156 77.171875 Z M 44.160156 74.039062 L 41.523438 75.5625 L 41.523438 78.28125 L 44.160156 76.757812 Z M 41.523438 75.148438 L 44.160156 73.625 L 44.160156 70.910156 L 41.523438 72.433594 Z M 44.160156 70.496094 L 44.160156 68.855469 C 44.160156 68.015625 43.566406 67.671875 42.84375 68.09375 C 42.117188 68.511719 41.523438 69.539062 41.523438 70.375 L 41.523438 72.019531 Z M 44.160156 70.496094 "/>
<path style=" stroke:none;fill-rule:nonzero;fill:rgb(35.686275%,75.686275%,86.666667%);fill-opacity:1;" d="M 43.921875 80.070312 L 43.921875 77.308594 L 41.523438 78.695312 L 41.523438 81.457031 Z M 43.921875 80.070312 "/>
<path style=" stroke:none;fill-rule:nonzero;fill:rgb(35.686275%,75.686275%,86.666667%);fill-opacity:1;" d="M 43.921875 80.070312 L 43.921875 77.308594 L 41.523438 78.695312 L 41.523438 81.457031 Z M 43.921875 80.070312 "/>
<path style=" stroke:none;fill-rule:nonzero;fill:rgb(47.843137%,84.705882%,92.941176%);fill-opacity:1;" d="M 43.921875 80.070312 L 43.921875 77.308594 L 41.523438 78.695312 L 41.523438 81.457031 Z M 43.921875 80.070312 "/>
<path style=" stroke:none;fill-rule:nonzero;fill:rgb(35.686275%,75.686275%,86.666667%);fill-opacity:1;" d="M 43.921875 77.308594 L 41.523438 78.695312 L 41.523438 81.457031 "/>
<path style=" stroke:none;fill-rule:nonzero;fill:rgb(47.843137%,84.705882%,92.941176%);fill-opacity:1;" d="M 43.921875 76.582031 L 43.921875 74.179688 L 41.523438 75.5625 L 41.523438 77.96875 Z M 43.921875 76.582031 "/>
<path style=" stroke:none;fill-rule:nonzero;fill:rgb(35.686275%,75.686275%,86.666667%);fill-opacity:1;" d="M 43.921875 74.179688 L 41.523438 75.5625 L 41.523438 77.96875 "/>
<path style=" stroke:none;fill-rule:nonzero;fill:rgb(47.843137%,84.705882%,92.941176%);fill-opacity:1;" d="M 43.921875 73.449219 L 43.921875 71.046875 L 41.523438 72.433594 L 41.523438 74.835938 Z M 43.921875 73.449219 "/>
<path style=" stroke:none;fill-rule:nonzero;fill:rgb(35.686275%,75.686275%,86.666667%);fill-opacity:1;" d="M 43.921875 71.046875 L 41.523438 72.433594 L 41.523438 74.835938 "/>
<path style=" stroke:none;fill-rule:nonzero;fill:rgb(47.843137%,84.705882%,92.941176%);fill-opacity:1;" d="M 42.84375 68.089844 C 42.117188 68.511719 41.523438 69.539062 41.523438 70.375 L 41.523438 71.703125 L 43.921875 70.316406 L 43.921875 68.675781 C 43.921875 68.371094 43.84375 68.136719 43.710938 67.976562 C 43.476562 67.875 43.175781 67.898438 42.84375 68.089844 Z M 42.84375 68.089844 "/>
<path style=" stroke:none;fill-rule:nonzero;fill:rgb(35.686275%,75.686275%,86.666667%);fill-opacity:1;" d="M 43.921875 68.675781 C 43.921875 68.371094 43.84375 68.136719 43.710938 67.976562 C 43.476562 67.875 43.175781 67.898438 42.84375 68.089844 C 42.117188 68.511719 41.523438 69.535156 41.523438 70.375 L 41.523438 71.703125 "/>
<path style=" stroke:none;fill-rule:nonzero;fill:rgb(45.098039%,65.882353%,65.490196%);fill-opacity:1;" d="M 45.957031 76.121094 L 45.957031 79.199219 L 48.59375 77.675781 L 48.59375 74.601562 Z M 48.59375 71.46875 L 45.957031 72.992188 L 45.957031 75.707031 L 48.59375 74.1875 Z M 45.957031 72.578125 L 48.59375 71.054688 L 48.59375 68.339844 L 45.957031 69.859375 Z M 48.59375 67.921875 L 48.59375 66.28125 C 48.59375 65.441406 48.003906 65.101562 47.277344 65.519531 C 46.550781 65.9375 45.957031 66.964844 45.957031 67.804688 L 45.957031 69.445312 Z M 48.59375 67.921875 "/>
<path style=" stroke:none;fill-rule:nonzero;fill:rgb(35.686275%,75.686275%,86.666667%);fill-opacity:1;" d="M 48.355469 77.5 L 48.355469 74.738281 L 45.957031 76.121094 L 45.957031 78.882812 Z M 48.355469 77.5 "/>
<path style=" stroke:none;fill-rule:nonzero;fill:rgb(35.686275%,75.686275%,86.666667%);fill-opacity:1;" d="M 48.355469 77.5 L 48.355469 74.738281 L 45.957031 76.121094 L 45.957031 78.882812 Z M 48.355469 77.5 "/>
<path style=" stroke:none;fill-rule:nonzero;fill:rgb(47.843137%,84.705882%,92.941176%);fill-opacity:1;" d="M 48.355469 77.5 L 48.355469 74.738281 L 45.957031 76.121094 L 45.957031 78.882812 Z M 48.355469 77.5 "/>
<path style=" stroke:none;fill-rule:nonzero;fill:rgb(35.686275%,75.686275%,86.666667%);fill-opacity:1;" d="M 48.355469 74.738281 L 45.957031 76.121094 L 45.957031 78.882812 "/>
<path style=" stroke:none;fill-rule:nonzero;fill:rgb(47.843137%,84.705882%,92.941176%);fill-opacity:1;" d="M 48.355469 74.007812 L 48.355469 71.609375 L 45.957031 72.992188 L 45.957031 75.394531 Z M 48.355469 74.007812 "/>
<path style=" stroke:none;fill-rule:nonzero;fill:rgb(35.686275%,75.686275%,86.666667%);fill-opacity:1;" d="M 48.355469 71.609375 L 45.957031 72.992188 L 45.957031 75.394531 "/>
<path style=" stroke:none;fill-rule:nonzero;fill:rgb(47.843137%,84.705882%,92.941176%);fill-opacity:1;" d="M 48.355469 70.878906 L 48.355469 68.476562 L 45.957031 69.859375 L 45.957031 72.265625 Z M 48.355469 70.878906 "/>
<path style=" stroke:none;fill-rule:nonzero;fill:rgb(35.686275%,75.686275%,86.666667%);fill-opacity:1;" d="M 48.355469 68.476562 L 45.957031 69.859375 L 45.957031 72.265625 "/>
<path style=" stroke:none;fill-rule:nonzero;fill:rgb(47.843137%,84.705882%,92.941176%);fill-opacity:1;" d="M 47.277344 65.519531 C 46.550781 65.9375 45.957031 66.964844 45.957031 67.804688 L 45.957031 69.132812 L 48.355469 67.746094 L 48.355469 66.105469 C 48.355469 65.800781 48.277344 65.566406 48.144531 65.40625 C 47.910156 65.300781 47.609375 65.328125 47.277344 65.519531 Z M 47.277344 65.519531 "/>
<path style=" stroke:none;fill-rule:nonzero;fill:rgb(35.686275%,75.686275%,86.666667%);fill-opacity:1;" d="M 48.355469 66.105469 C 48.355469 65.800781 48.277344 65.566406 48.144531 65.40625 C 47.910156 65.300781 47.609375 65.328125 47.277344 65.519531 C 46.550781 65.9375 45.957031 66.964844 45.957031 67.804688 L 45.957031 69.132812 "/>
<path style=" stroke:none;fill-rule:nonzero;fill:rgb(50.196078%,71.764706%,70.196078%);fill-opacity:1;" d="M 28.84375 69.824219 C 29.34375 70.113281 29.75 70.820312 29.75 71.394531 L 29.75 83.066406 L 27.941406 82.023438 L 27.941406 70.347656 C 27.941406 69.773438 28.347656 69.539062 28.84375 69.824219 Z M 28.84375 69.824219 "/>
<path style=" stroke:none;fill-rule:nonzero;fill:rgb(47.843137%,84.705882%,92.941176%);fill-opacity:1;" d="M 28.84375 69.824219 C 28.625 69.699219 28.425781 69.679688 28.269531 69.738281 C 28.179688 69.851562 28.125 70.011719 28.125 70.21875 L 28.125 81.890625 L 29.75 82.828125 L 29.75 71.394531 C 29.75 70.820312 29.34375 70.113281 28.84375 69.824219 Z M 28.84375 69.824219 "/>
<path style=" stroke:none;fill-rule:nonzero;fill:rgb(38.039216%,80%,89.803922%);fill-opacity:1;" d="M 29.75 82.828125 L 29.75 71.394531 C 29.75 70.816406 29.34375 70.113281 28.84375 69.824219 C 28.625 69.699219 28.425781 69.679688 28.269531 69.738281 C 28.179688 69.851562 28.125 70.011719 28.125 70.21875 "/>
<path style=" stroke:none;fill-rule:nonzero;fill:rgb(50.196078%,71.764706%,70.196078%);fill-opacity:1;" d="M 31.441406 71.335938 C 31.9375 71.621094 32.347656 72.328125 32.347656 72.902344 L 32.347656 84.578125 L 30.535156 83.53125 L 30.535156 71.859375 C 30.535156 71.28125 30.941406 71.046875 31.441406 71.335938 Z M 31.441406 71.335938 "/>
<path style=" stroke:none;fill-rule:nonzero;fill:rgb(47.843137%,84.705882%,92.941176%);fill-opacity:1;" d="M 31.441406 71.335938 C 31.21875 71.207031 31.019531 71.1875 30.863281 71.25 C 30.773438 71.359375 30.71875 71.519531 30.71875 71.726562 L 30.71875 83.398438 L 32.347656 84.339844 L 32.347656 72.902344 C 32.347656 72.328125 31.9375 71.621094 31.441406 71.335938 Z M 31.441406 71.335938 "/>
<path style=" stroke:none;fill-rule:nonzero;fill:rgb(38.039216%,80%,89.803922%);fill-opacity:1;" d="M 32.347656 84.339844 L 32.347656 72.902344 C 32.347656 72.328125 31.9375 71.621094 31.441406 71.335938 C 31.21875 71.207031 31.019531 71.1875 30.863281 71.25 C 30.773438 71.359375 30.71875 71.519531 30.71875 71.726562 "/>
<path style=" stroke:none;fill-rule:nonzero;fill:rgb(50.196078%,71.764706%,70.196078%);fill-opacity:1;" d="M 19.285156 64.324219 C 19.785156 64.613281 20.191406 65.316406 20.191406 65.894531 L 20.191406 77.566406 L 18.378906 76.519531 L 18.378906 64.847656 C 18.378906 64.269531 18.789062 64.035156 19.285156 64.324219 Z M 19.285156 64.324219 "/>
<path style=" stroke:none;fill-rule:nonzero;fill:rgb(47.843137%,84.705882%,92.941176%);fill-opacity:1;" d="M 19.285156 64.324219 C 19.066406 64.195312 18.867188 64.175781 18.710938 64.238281 C 18.621094 64.347656 18.566406 64.507812 18.566406 64.714844 L 18.566406 76.386719 L 20.191406 77.328125 L 20.191406 65.894531 C 20.191406 65.316406 19.785156 64.613281 19.285156 64.324219 Z M 19.285156 64.324219 "/>
<path style=" stroke:none;fill-rule:nonzero;fill:rgb(38.039216%,80%,89.803922%);fill-opacity:1;" d="M 20.191406 77.328125 L 20.191406 65.894531 C 20.191406 65.316406 19.785156 64.613281 19.285156 64.324219 C 19.066406 64.195312 18.867188 64.175781 18.710938 64.238281 C 18.621094 64.347656 18.566406 64.507812 18.566406 64.714844 "/>
<path style=" stroke:none;fill-rule:nonzero;fill:rgb(50.196078%,71.764706%,70.196078%);fill-opacity:1;" d="M 21.878906 65.832031 C 22.378906 66.121094 22.785156 66.828125 22.785156 67.402344 L 22.785156 79.074219 L 20.976562 78.03125 L 20.976562 66.355469 C 20.976562 65.78125 21.382812 65.546875 21.878906 65.832031 Z M 21.878906 65.832031 "/>
<path style=" stroke:none;fill-rule:nonzero;fill:rgb(47.843137%,84.705882%,92.941176%);fill-opacity:1;" d="M 21.878906 65.832031 C 21.660156 65.707031 21.460938 65.6875 21.304688 65.746094 C 21.214844 65.859375 21.160156 66.019531 21.160156 66.222656 L 21.160156 77.898438 L 22.785156 78.835938 L 22.785156 67.402344 C 22.785156 66.828125 22.378906 66.121094 21.878906 65.832031 Z M 21.878906 65.832031 "/>
<path style=" stroke:none;fill-rule:nonzero;fill:rgb(38.039216%,80%,89.803922%);fill-opacity:1;" d="M 22.785156 78.835938 L 22.785156 67.402344 C 22.785156 66.828125 22.378906 66.121094 21.878906 65.832031 C 21.660156 65.707031 21.460938 65.6875 21.304688 65.746094 C 21.214844 65.859375 21.160156 66.019531 21.160156 66.222656 "/>
<path style=" stroke:none;fill-rule:nonzero;fill:rgb(31.764706%,55.686275%,54.509804%);fill-opacity:1;" d="M 25.253906 72.453125 C 26.25 73.03125 27.066406 74.441406 27.066406 75.589844 L 27.066406 82.925781 L 23.445312 80.835938 L 23.445312 73.5 C 23.445312 72.347656 24.261719 71.878906 25.253906 72.453125 Z M 25.253906 72.453125 "/>
<path style=" stroke:none;fill-rule:nonzero;fill:rgb(53.72549%,39.607843%,18.823529%);fill-opacity:1;" d="M 25.253906 72.453125 C 24.808594 72.195312 24.402344 72.15625 24.085938 72.289062 C 23.84375 72.503906 23.691406 72.859375 23.691406 73.34375 L 23.691406 80.679688 L 27.066406 82.628906 L 27.066406 75.589844 C 27.066406 74.441406 26.25 73.03125 25.253906 72.453125 Z M 25.253906 72.453125 "/>
<path style=" stroke:none;fill-rule:nonzero;fill:rgb(43.921569%,30.980392%,14.117647%);fill-opacity:1;" d="M 27.066406 82.628906 L 27.066406 75.589844 C 27.066406 74.441406 26.25 73.03125 25.253906 72.453125 C 24.808594 72.195312 24.402344 72.15625 24.085938 72.289062 C 23.84375 72.503906 23.691406 72.859375 23.691406 73.34375 "/>
<path style=" stroke:none;fill-rule:nonzero;fill:rgb(31.764706%,55.686275%,54.509804%);fill-opacity:1;" d="M 23.691406 74.359375 L 27.066406 76.308594 L 27.066406 75.738281 L 23.691406 73.789062 Z M 23.691406 74.359375 "/>
<path style=" stroke:none;fill-rule:nonzero;fill:rgb(31.764706%,55.686275%,54.509804%);fill-opacity:1;" d="M 25.140625 81.515625 L 25.371094 81.648438 L 25.371094 74.90625 L 25.140625 74.90625 Z M 25.140625 81.515625 "/>
<path style=" stroke:none;fill-rule:nonzero;fill:rgb(45.098039%,65.882353%,65.490196%);fill-opacity:1;" d="M 25.496094 48.25 L 25.496094 47.429688 C 25.496094 47.011719 25.792969 46.839844 26.152344 47.046875 C 26.515625 47.257812 26.8125 47.773438 26.8125 48.191406 L 26.8125 49.011719 Z M 25.496094 48.25 "/>
<path style=" stroke:none;fill-rule:nonzero;fill:rgb(47.843137%,84.705882%,92.941176%);fill-opacity:1;" d="M 26.15625 47.046875 C 26.519531 47.257812 26.816406 47.773438 26.816406 48.191406 L 26.816406 48.855469 L 25.613281 48.164062 L 25.613281 47.339844 C 25.613281 47.1875 25.65625 47.070312 25.722656 46.992188 C 25.835938 46.941406 25.988281 46.953125 26.15625 47.046875 Z M 26.15625 47.046875 "/>
<path style=" stroke:none;fill-rule:nonzero;fill:rgb(35.686275%,75.686275%,86.666667%);fill-opacity:1;" d="M 25.613281 47.339844 C 25.613281 47.1875 25.652344 47.070312 25.722656 46.992188 C 25.835938 46.941406 25.988281 46.953125 26.152344 47.046875 C 26.515625 47.257812 26.8125 47.773438 26.8125 48.191406 L 26.8125 48.855469 "/>
<path style=" stroke:none;fill-rule:nonzero;fill:rgb(45.098039%,65.882353%,65.490196%);fill-opacity:1;" d="M 25.496094 51.449219 L 25.496094 50.628906 C 25.496094 50.210938 25.792969 50.039062 26.152344 50.246094 C 26.515625 50.457031 26.8125 50.972656 26.8125 51.390625 L 26.8125 52.210938 Z M 25.496094 51.449219 "/>
<path style=" stroke:none;fill-rule:nonzero;fill:rgb(47.843137%,84.705882%,92.941176%);fill-opacity:1;" d="M 26.15625 50.25 C 26.519531 50.457031 26.816406 50.972656 26.816406 51.390625 L 26.816406 52.054688 L 25.613281 51.363281 L 25.613281 50.542969 C 25.613281 50.390625 25.65625 50.273438 25.722656 50.191406 C 25.835938 50.140625 25.988281 50.152344 26.15625 50.25 Z M 26.15625 50.25 "/>
<path style=" stroke:none;fill-rule:nonzero;fill:rgb(35.686275%,75.686275%,86.666667%);fill-opacity:1;" d="M 25.613281 50.542969 C 25.613281 50.390625 25.652344 50.273438 25.722656 50.191406 C 25.835938 50.140625 25.988281 50.152344 26.152344 50.25 C 26.515625 50.457031 26.8125 50.972656 26.8125 51.390625 L 26.8125 52.054688 "/>
<path style=" stroke:none;fill-rule:nonzero;fill:rgb(45.098039%,65.882353%,65.490196%);fill-opacity:1;" d="M 25.496094 54.652344 L 25.496094 53.832031 C 25.496094 53.410156 25.792969 53.238281 26.152344 53.449219 C 26.515625 53.660156 26.8125 54.171875 26.8125 54.589844 L 26.8125 55.414062 Z M 25.496094 54.652344 "/>
<path style=" stroke:none;fill-rule:nonzero;fill:rgb(47.843137%,84.705882%,92.941176%);fill-opacity:1;" d="M 26.15625 53.449219 C 26.519531 53.660156 26.816406 54.171875 26.816406 54.589844 L 26.816406 55.253906 L 25.613281 54.5625 L 25.613281 53.742188 C 25.613281 53.589844 25.65625 53.472656 25.722656 53.390625 C 25.835938 53.339844 25.988281 53.351562 26.15625 53.449219 Z M 26.15625 53.449219 "/>
<path style=" stroke:none;fill-rule:nonzero;fill:rgb(35.686275%,75.686275%,86.666667%);fill-opacity:1;" d="M 25.613281 53.742188 C 25.613281 53.589844 25.652344 53.472656 25.722656 53.390625 C 25.835938 53.339844 25.988281 53.351562 26.152344 53.449219 C 26.515625 53.660156 26.8125 54.171875 26.8125 54.589844 L 26.8125 55.253906 "/>
<path style=" stroke:none;fill-rule:nonzero;fill:rgb(45.098039%,65.882353%,65.490196%);fill-opacity:1;" d="M 25.496094 57.851562 L 25.496094 57.03125 C 25.496094 56.609375 25.792969 56.4375 26.152344 56.648438 C 26.515625 56.859375 26.8125 57.371094 26.8125 57.792969 L 26.8125 58.613281 Z M 25.496094 57.851562 "/>
<path style=" stroke:none;fill-rule:nonzero;fill:rgb(47.843137%,84.705882%,92.941176%);fill-opacity:1;" d="M 26.15625 56.648438 C 26.519531 56.859375 26.816406 57.371094 26.816406 57.792969 L 26.816406 58.457031 L 25.613281 57.761719 L 25.613281 56.941406 C 25.613281 56.789062 25.65625 56.671875 25.722656 56.589844 C 25.835938 56.539062 25.988281 56.554688 26.15625 56.648438 Z M 26.15625 56.648438 "/>
<path style=" stroke:none;fill-rule:nonzero;fill:rgb(35.686275%,75.686275%,86.666667%);fill-opacity:1;" d="M 25.613281 56.941406 C 25.613281 56.789062 25.652344 56.671875 25.722656 56.589844 C 25.835938 56.539062 25.988281 56.554688 26.152344 56.648438 C 26.515625 56.859375 26.8125 57.371094 26.8125 57.792969 L 26.8125 58.457031 "/>
<path style=" stroke:none;fill-rule:nonzero;fill:rgb(38.039216%,60%,58.039216%);fill-opacity:1;" d="M 23.328125 81.566406 L 20.222656 83.355469 C 19.65625 83.683594 19.65625 84.222656 20.222656 84.550781 L 22.292969 85.746094 C 22.863281 86.074219 23.792969 86.074219 24.363281 85.746094 L 27.464844 83.953125 Z M 23.328125 81.566406 "/>
<path style=" stroke:none;fill-rule:nonzero;fill:rgb(38.039216%,60%,58.039216%);fill-opacity:1;" d="M 19.796875 83.691406 L 27.46875 83.691406 L 27.46875 83.941406 L 19.796875 83.941406 Z M 19.796875 83.691406 "/>
<path style=" stroke:none;fill-rule:nonzero;fill:rgb(50.196078%,71.764706%,70.196078%);fill-opacity:1;" d="M 23.328125 81.292969 L 20.222656 83.082031 C 19.65625 83.410156 19.65625 83.949219 20.222656 84.277344 L 22.292969 85.472656 C 22.863281 85.800781 23.792969 85.800781 24.363281 85.472656 L 27.464844 83.679688 Z M 23.328125 81.292969 "/>
<path style=" stroke:none;fill-rule:nonzero;fill:rgb(38.039216%,60%,58.039216%);fill-opacity:1;" d="M 23.347656 81.3125 L 20.433594 82.996094 C 19.902344 83.304688 19.902344 83.804688 20.4375 84.117188 L 22.375 85.234375 C 22.910156 85.542969 23.785156 85.542969 24.316406 85.234375 L 27.230469 83.554688 Z M 23.347656 81.3125 "/>
<path style=" stroke:none;fill-rule:nonzero;fill:rgb(38.039216%,60%,58.039216%);fill-opacity:1;" d="M 20.035156 83.308594 L 27.230469 83.308594 L 27.230469 83.542969 L 20.035156 83.542969 Z M 20.035156 83.308594 "/>
<path style=" stroke:none;fill-rule:nonzero;fill:rgb(55.686275%,74.901961%,74.901961%);fill-opacity:1;" d="M 23.347656 81.058594 L 20.433594 82.738281 C 19.902344 83.046875 19.902344 83.550781 20.4375 83.859375 L 22.375 84.980469 C 22.910156 85.289062 23.785156 85.289062 24.316406 84.980469 L 27.230469 83.296875 Z M 23.347656 81.058594 "/>
<path style=" stroke:none;fill-rule:nonzero;fill:rgb(38.039216%,60%,58.039216%);fill-opacity:1;" d="M 23.4375 81.101562 L 20.738281 82.660156 C 20.242188 82.945312 20.242188 83.417969 20.738281 83.699219 L 22.539062 84.742188 C 23.035156 85.027344 23.84375 85.027344 24.339844 84.742188 L 27.039062 83.179688 Z M 23.4375 81.101562 "/>
<path style=" stroke:none;fill-rule:nonzero;fill:rgb(38.039216%,60%,58.039216%);fill-opacity:1;" d="M 20.367188 82.953125 L 27.039062 82.953125 L 27.039062 83.171875 L 20.367188 83.171875 Z M 20.367188 82.953125 "/>
<path style=" stroke:none;fill-rule:nonzero;fill:rgb(60.784314%,82.745098%,81.960784%);fill-opacity:1;" d="M 23.4375 80.863281 L 20.738281 82.421875 C 20.242188 82.707031 20.242188 83.175781 20.738281 83.460938 L 22.539062 84.503906 C 23.035156 84.789062 23.84375 84.789062 24.339844 84.503906 L 27.039062 82.945312 Z M 23.4375 80.863281 "/>
<path style=" stroke:none;fill-rule:nonzero;fill:rgb(45.882353%,20.392157%,42.352941%);fill-opacity:1;" d="M 27.398438 42.097656 C 27.316406 42.097656 27.253906 42.03125 27.253906 41.949219 L 27.253906 40.179688 C 27.253906 40.097656 27.316406 40.03125 27.398438 40.03125 C 27.480469 40.03125 27.542969 40.097656 27.542969 40.179688 L 27.542969 41.949219 C 27.542969 42.03125 27.480469 42.097656 27.398438 42.097656 Z M 27.398438 42.097656 "/>
<path style=" stroke:none;fill-rule:nonzero;fill:rgb(66.666667%,32.54902%,65.098039%);fill-opacity:1;" d="M 27.726562 38.601562 L 27.726562 37.839844 L 27.066406 37.457031 L 27.066406 38.21875 L 26.40625 37.839844 L 26.40625 38.601562 L 27.066406 38.980469 L 27.066406 40.503906 L 27.726562 40.886719 L 27.726562 39.359375 L 28.386719 39.742188 L 28.386719 38.980469 Z M 27.726562 38.601562 "/>
<path style=" stroke:none;fill-rule:nonzero;fill:rgb(31.764706%,55.686275%,54.509804%);fill-opacity:1;" d="M 42.160156 43.296875 L 42.160156 41.828125 L 40.886719 41.09375 L 40.886719 42.5625 L 39.617188 41.828125 L 39.617188 43.296875 L 40.886719 44.03125 L 40.886719 46.96875 L 42.160156 47.703125 L 42.160156 44.765625 L 43.433594 45.5 L 43.433594 44.03125 Z M 42.160156 43.296875 "/>
<path style=" stroke:none;fill-rule:nonzero;fill:rgb(35.686275%,75.686275%,86.666667%);fill-opacity:1;" d="M 42.160156 43.296875 L 42.160156 41.828125 L 41.019531 41.171875 L 41.019531 42.480469 L 40.886719 42.5625 L 39.75 41.90625 L 39.75 43.214844 L 41.023438 43.949219 L 41.019531 46.886719 L 42.160156 47.546875 L 42.160156 44.765625 L 42.292969 44.6875 L 43.433594 45.34375 L 43.433594 44.03125 Z M 42.160156 43.296875 "/>
<path style=" stroke:none;fill-rule:nonzero;fill:rgb(30.588235%,67.058824%,80%);fill-opacity:1;" d="M 43.433594 44.03125 L 42.160156 43.296875 L 42.160156 41.828125 L 41.019531 41.171875 L 41.019531 42.480469 L 40.886719 42.5625 L 39.75 41.90625 L 39.75 41.957031 L 40.953125 43.910156 L 41.023438 43.949219 L 41.023438 44.023438 L 42.160156 45.871094 L 42.160156 44.765625 L 42.292969 44.6875 L 43.433594 45.34375 Z M 43.433594 44.03125 "/>
<path style=" stroke:none;fill-rule:nonzero;fill:rgb(50.196078%,71.764706%,70.196078%);fill-opacity:1;" d="M 66.046875 53.234375 C 65.265625 53.683594 64.625 54.789062 64.625 55.691406 L 64.625 73.996094 L 67.464844 72.355469 L 67.464844 54.054688 C 67.464844 53.152344 66.824219 52.78125 66.046875 53.234375 Z M 66.046875 53.234375 "/>
<path style=" stroke:none;fill-rule:nonzero;fill:rgb(47.843137%,84.705882%,92.941176%);fill-opacity:1;" d="M 66.046875 53.234375 C 66.390625 53.035156 66.703125 53.003906 66.949219 53.097656 C 67.089844 53.273438 67.175781 53.523438 67.175781 53.84375 L 67.175781 72.148438 L 64.625 73.621094 L 64.625 55.691406 C 64.625 54.789062 65.265625 53.683594 66.046875 53.234375 Z M 66.046875 53.234375 "/>
<path style=" stroke:none;fill-rule:nonzero;fill:rgb(38.039216%,80%,89.803922%);fill-opacity:1;" d="M 64.625 73.621094 L 64.625 55.691406 C 64.625 54.789062 65.265625 53.683594 66.046875 53.234375 C 66.390625 53.035156 66.703125 53.003906 66.949219 53.097656 C 67.089844 53.273438 67.175781 53.523438 67.175781 53.84375 "/>
<path style=" stroke:none;fill-rule:nonzero;fill:rgb(50.196078%,71.764706%,70.196078%);fill-opacity:1;" d="M 61.976562 55.597656 C 61.195312 56.050781 60.558594 57.15625 60.558594 58.058594 L 60.558594 76.359375 L 63.398438 74.722656 L 63.398438 56.417969 C 63.398438 55.515625 62.757812 55.148438 61.976562 55.597656 Z M 61.976562 55.597656 "/>
<path style=" stroke:none;fill-rule:nonzero;fill:rgb(47.843137%,84.705882%,92.941176%);fill-opacity:1;" d="M 61.976562 55.597656 C 62.320312 55.398438 62.636719 55.367188 62.882812 55.464844 C 63.023438 55.636719 63.109375 55.886719 63.109375 56.210938 L 63.109375 74.511719 L 60.558594 75.984375 L 60.558594 58.058594 C 60.558594 57.15625 61.195312 56.050781 61.976562 55.597656 Z M 61.976562 55.597656 "/>
<path style=" stroke:none;fill-rule:nonzero;fill:rgb(38.039216%,80%,89.803922%);fill-opacity:1;" d="M 60.558594 75.984375 L 60.558594 58.058594 C 60.558594 57.15625 61.195312 56.050781 61.976562 55.597656 C 62.320312 55.398438 62.636719 55.367188 62.882812 55.464844 C 63.023438 55.636719 63.109375 55.886719 63.109375 56.210938 "/>
<path style=" stroke:none;fill-rule:nonzero;fill:rgb(50.196078%,71.764706%,70.196078%);fill-opacity:1;" d="M 77.335938 46.75 C 76.554688 47.203125 75.914062 48.308594 75.914062 49.210938 L 75.914062 67.511719 L 78.753906 65.875 L 78.753906 47.570312 C 78.753906 46.667969 78.117188 46.300781 77.335938 46.75 Z M 77.335938 46.75 "/>
<path style=" stroke:none;fill-rule:nonzero;fill:rgb(47.843137%,84.705882%,92.941176%);fill-opacity:1;" d="M 77.335938 46.75 C 77.679688 46.550781 77.992188 46.519531 78.242188 46.617188 C 78.378906 46.789062 78.464844 47.039062 78.464844 47.363281 L 78.464844 65.667969 L 75.914062 67.136719 L 75.914062 49.210938 C 75.914062 48.308594 76.554688 47.203125 77.335938 46.75 Z M 77.335938 46.75 "/>
<path style=" stroke:none;fill-rule:nonzero;fill:rgb(38.039216%,80%,89.803922%);fill-opacity:1;" d="M 75.914062 67.136719 L 75.914062 49.210938 C 75.914062 48.308594 76.554688 47.203125 77.335938 46.75 C 77.679688 46.550781 77.992188 46.519531 78.238281 46.617188 C 78.378906 46.789062 78.464844 47.039062 78.464844 47.363281 "/>
<path style=" stroke:none;fill-rule:nonzero;fill:rgb(50.196078%,71.764706%,70.196078%);fill-opacity:1;" d="M 73.269531 49.117188 C 72.488281 49.570312 71.847656 50.675781 71.847656 51.574219 L 71.847656 69.878906 L 74.6875 68.238281 L 74.6875 49.9375 C 74.6875 49.035156 74.046875 48.667969 73.269531 49.117188 Z M 73.269531 49.117188 "/>
<path style=" stroke:none;fill-rule:nonzero;fill:rgb(47.843137%,84.705882%,92.941176%);fill-opacity:1;" d="M 73.269531 49.117188 C 73.613281 48.917969 73.925781 48.886719 74.171875 48.980469 C 74.3125 49.15625 74.398438 49.40625 74.398438 49.730469 L 74.398438 68.03125 L 71.847656 69.503906 L 71.847656 51.574219 C 71.847656 50.675781 72.488281 49.570312 73.269531 49.117188 Z M 73.269531 49.117188 "/>
<path style=" stroke:none;fill-rule:nonzero;fill:rgb(38.039216%,80%,89.803922%);fill-opacity:1;" d="M 71.847656 69.503906 L 71.847656 51.574219 C 71.847656 50.675781 72.488281 49.566406 73.269531 49.117188 C 73.613281 48.917969 73.925781 48.886719 74.171875 48.980469 C 74.3125 49.15625 74.398438 49.40625 74.398438 49.730469 "/>
<path style=" stroke:none;fill-rule:nonzero;fill:rgb(40%,40%,40%);fill-opacity:1;" d="M 20.679688 93.003906 L 21.59375 93.003906 C 21.507812 93.734375 21.238281 94.296875 20.785156 94.695312 C 20.332031 95.09375 19.726562 95.289062 18.972656 95.289062 C 18.152344 95.289062 17.5 94.996094 17.007812 94.414062 C 16.515625 93.828125 16.269531 93.042969 16.269531 92.058594 L 16.269531 91.394531 C 16.269531 90.753906 16.382812 90.1875 16.613281 89.695312 C 16.84375 89.210938 17.167969 88.835938 17.585938 88.574219 C 18.007812 88.308594 18.496094 88.179688 19.050781 88.179688 C 19.789062 88.179688 20.378906 88.386719 20.820312 88.796875 C 21.261719 89.207031 21.519531 89.777344 21.59375 90.503906 L 20.679688 90.503906 C 20.597656 89.949219 20.425781 89.550781 20.160156 89.304688 C 19.894531 89.054688 19.527344 88.929688 19.050781 88.929688 C 18.46875 88.929688 18.011719 89.148438 17.679688 89.578125 C 17.347656 90.007812 17.183594 90.621094 17.183594 91.417969 L 17.183594 92.085938 C 17.183594 92.839844 17.339844 93.4375 17.65625 93.878906 C 17.96875 94.324219 18.40625 94.546875 18.972656 94.546875 C 19.480469 94.546875 19.867188 94.429688 20.140625 94.203125 C 20.410156 93.972656 20.589844 93.570312 20.679688 93.003906 Z M 25.894531 95.195312 L 25.878906 94.6875 C 25.535156 95.089844 25.03125 95.289062 24.371094 95.289062 C 23.824219 95.289062 23.40625 95.132812 23.117188 94.816406 C 22.832031 94.496094 22.6875 94.027344 22.683594 93.402344 L 22.683594 90.054688 L 23.5625 90.054688 L 23.5625 93.378906 C 23.5625 94.15625 23.882812 94.546875 24.515625 94.546875 C 25.183594 94.546875 25.632812 94.296875 25.855469 93.792969 L 25.855469 90.054688 L 26.730469 90.054688 L 26.730469 95.195312 Z M 29.023438 87.894531 L 29.023438 95.195312 L 28.144531 95.195312 L 28.144531 87.894531 Z M 30.746094 88.808594 L 31.625 88.808594 L 31.625 90.054688 L 32.585938 90.054688 L 32.585938 90.730469 L 31.625 90.730469 L 31.625 93.921875 C 31.625 94.128906 31.667969 94.285156 31.753906 94.386719 C 31.839844 94.492188 31.984375 94.542969 32.1875 94.542969 C 32.292969 94.542969 32.429688 94.523438 32.609375 94.484375 L 32.609375 95.195312 C 32.378906 95.257812 32.152344 95.289062 31.929688 95.289062 C 31.539062 95.289062 31.242188 95.171875 31.046875 94.9375 C 30.847656 94.695312 30.746094 94.359375 30.746094 93.921875 L 30.746094 90.730469 L 29.808594 90.730469 L 29.808594 90.054688 L 30.746094 90.054688 Z M 33.285156 92.640625 L 33.285156 92.578125 C 33.285156 92.074219 33.382812 91.621094 33.582031 91.21875 C 33.78125 90.816406 34.054688 90.503906 34.410156 90.285156 C 34.761719 90.066406 35.164062 89.957031 35.617188 89.957031 C 36.316406 89.957031 36.882812 90.203125 37.316406 90.6875 C 37.75 91.171875 37.96875 91.816406 37.96875 92.621094 L 37.96875 92.683594 C 37.96875 93.183594 37.871094 93.628906 37.679688 94.027344 C 37.488281 94.425781 37.214844 94.738281 36.855469 94.957031 C 36.5 95.179688 36.089844 95.289062 35.625 95.289062 C 34.929688 95.289062 34.363281 95.046875 33.929688 94.5625 C 33.5 94.082031 33.285156 93.4375 33.285156 92.640625 Z M 34.164062 92.683594 C 34.164062 93.253906 34.296875 93.710938 34.5625 94.054688 C 34.828125 94.402344 35.183594 94.574219 35.625 94.574219 C 36.074219 94.574219 36.429688 94.398438 36.691406 94.050781 C 36.953125 93.699219 37.085938 93.207031 37.085938 92.578125 C 37.085938 92.015625 36.953125 91.558594 36.683594 91.207031 C 36.414062 90.855469 36.058594 90.679688 35.617188 90.679688 C 35.183594 90.679688 34.835938 90.851562 34.570312 91.203125 C 34.300781 91.546875 34.164062 92.039062 34.164062 92.683594 Z M 42.0625 93.835938 C 42.0625 93.59375 41.972656 93.410156 41.792969 93.28125 C 41.613281 93.148438 41.300781 93.035156 40.855469 92.941406 C 40.410156 92.847656 40.058594 92.730469 39.796875 92.59375 C 39.535156 92.460938 39.34375 92.304688 39.21875 92.121094 C 39.09375 91.9375 39.027344 91.71875 39.027344 91.46875 C 39.027344 91.046875 39.207031 90.6875 39.5625 90.394531 C 39.921875 90.105469 40.375 89.957031 40.929688 89.957031 C 41.515625 89.957031 41.988281 90.109375 42.351562 90.410156 C 42.714844 90.710938 42.894531 91.09375 42.894531 91.5625 L 42.011719 91.5625 C 42.011719 91.324219 41.910156 91.117188 41.707031 90.945312 C 41.5 90.769531 41.242188 90.679688 40.929688 90.679688 C 40.609375 90.679688 40.359375 90.75 40.179688 90.890625 C 40 91.03125 39.910156 91.210938 39.910156 91.4375 C 39.910156 91.648438 39.992188 91.808594 40.160156 91.917969 C 40.328125 92.023438 40.632812 92.128906 41.074219 92.226562 C 41.507812 92.324219 41.863281 92.441406 42.140625 92.578125 C 42.410156 92.714844 42.613281 92.875 42.746094 93.070312 C 42.875 93.261719 42.941406 93.496094 42.941406 93.773438 C 42.941406 94.230469 42.757812 94.597656 42.390625 94.875 C 42.023438 95.152344 41.546875 95.289062 40.957031 95.289062 C 40.546875 95.289062 40.183594 95.21875 39.863281 95.074219 C 39.550781 94.929688 39.300781 94.726562 39.121094 94.460938 C 38.945312 94.199219 38.855469 93.917969 38.855469 93.613281 L 39.730469 93.613281 C 39.75 93.90625 39.867188 94.140625 40.085938 94.316406 C 40.308594 94.488281 40.597656 94.574219 40.957031 94.574219 C 41.292969 94.574219 41.558594 94.507812 41.757812 94.375 C 41.960938 94.238281 42.0625 94.058594 42.0625 93.835938 Z M 48.675781 92.113281 C 47.894531 91.886719 47.324219 91.613281 46.96875 91.28125 C 46.609375 90.953125 46.429688 90.550781 46.429688 90.070312 C 46.429688 89.523438 46.648438 89.070312 47.085938 88.714844 C 47.519531 88.359375 48.085938 88.179688 48.785156 88.179688 C 49.261719 88.179688 49.683594 88.273438 50.054688 88.457031 C 50.425781 88.640625 50.714844 88.894531 50.917969 89.21875 C 51.125 89.539062 51.226562 89.894531 51.226562 90.277344 L 50.308594 90.277344 C 50.308594 89.859375 50.175781 89.527344 49.910156 89.289062 C 49.644531 89.050781 49.269531 88.929688 48.785156 88.929688 C 48.335938 88.929688 47.984375 89.03125 47.730469 89.226562 C 47.480469 89.425781 47.351562 89.703125 47.351562 90.054688 C 47.351562 90.335938 47.472656 90.574219 47.710938 90.769531 C 47.949219 90.960938 48.355469 91.140625 48.929688 91.304688 C 49.507812 91.464844 49.957031 91.644531 50.28125 91.839844 C 50.609375 92.03125 50.851562 92.261719 51.007812 92.519531 C 51.164062 92.78125 51.242188 93.085938 51.242188 93.441406 C 51.242188 94 51.023438 94.449219 50.585938 94.785156 C 50.148438 95.121094 49.5625 95.289062 48.828125 95.289062 C 48.355469 95.289062 47.914062 95.199219 47.503906 95.019531 C 47.089844 94.835938 46.769531 94.585938 46.546875 94.273438 C 46.324219 93.953125 46.210938 93.59375 46.210938 93.191406 L 47.128906 93.191406 C 47.128906 93.609375 47.285156 93.9375 47.589844 94.183594 C 47.902344 94.425781 48.3125 94.546875 48.828125 94.546875 C 49.3125 94.546875 49.683594 94.449219 49.941406 94.25 C 50.195312 94.054688 50.324219 93.789062 50.324219 93.449219 C 50.324219 93.109375 50.207031 92.847656 49.96875 92.660156 C 49.726562 92.476562 49.296875 92.292969 48.675781 92.113281 Z M 54.40625 95.289062 C 53.707031 95.289062 53.140625 95.0625 52.707031 94.605469 C 52.269531 94.148438 52.050781 93.535156 52.050781 92.769531 L 52.050781 92.609375 C 52.050781 92.097656 52.148438 91.640625 52.34375 91.242188 C 52.539062 90.839844 52.808594 90.527344 53.15625 90.296875 C 53.507812 90.070312 53.886719 89.957031 54.296875 89.957031 C 54.964844 89.957031 55.484375 90.179688 55.855469 90.621094 C 56.226562 91.0625 56.414062 91.691406 56.414062 92.511719 L 56.414062 92.878906 L 52.925781 92.878906 C 52.941406 93.386719 53.089844 93.792969 53.375 94.105469 C 53.65625 94.417969 54.015625 94.574219 54.453125 94.574219 C 54.761719 94.574219 55.027344 94.507812 55.242188 94.382812 C 55.457031 94.257812 55.644531 94.085938 55.808594 93.878906 L 56.347656 94.296875 C 55.917969 94.960938 55.269531 95.289062 54.40625 95.289062 Z M 54.296875 90.679688 C 53.941406 90.679688 53.644531 90.808594 53.40625 91.070312 C 53.164062 91.328125 53.015625 91.691406 52.957031 92.15625 L 55.53125 92.15625 L 55.53125 92.085938 C 55.507812 91.640625 55.386719 91.296875 55.171875 91.050781 C 54.953125 90.804688 54.664062 90.679688 54.296875 90.679688 Z M 57.421875 90.054688 L 58.253906 90.054688 L 58.28125 90.625 C 58.660156 90.179688 59.167969 89.957031 59.808594 89.957031 C 60.527344 89.957031 61.015625 90.234375 61.277344 90.785156 C 61.449219 90.539062 61.671875 90.339844 61.945312 90.1875 C 62.214844 90.035156 62.539062 89.957031 62.914062 89.957031 C 64.042969 89.957031 64.617188 90.554688 64.636719 91.75 L 64.636719 95.195312 L 63.753906 95.195312 L 63.753906 91.804688 C 63.753906 91.433594 63.671875 91.160156 63.503906 90.980469 C 63.335938 90.796875 63.050781 90.707031 62.65625 90.707031 C 62.332031 90.707031 62.0625 90.804688 61.847656 90.996094 C 61.628906 91.191406 61.503906 91.453125 61.472656 91.785156 L 61.472656 95.195312 L 60.585938 95.195312 L 60.585938 91.824219 C 60.585938 91.078125 60.21875 90.707031 59.488281 90.707031 C 58.910156 90.707031 58.515625 90.949219 58.304688 91.441406 L 58.304688 95.195312 L 57.421875 95.195312 Z M 70.058594 95.195312 L 69.136719 95.195312 C 69.085938 95.097656 69.042969 94.917969 69.011719 94.65625 C 68.605469 95.078125 68.117188 95.289062 67.550781 95.289062 C 67.042969 95.289062 66.628906 95.148438 66.304688 94.859375 C 65.976562 94.574219 65.8125 94.210938 65.8125 93.773438 C 65.8125 93.234375 66.015625 92.820312 66.425781 92.523438 C 66.835938 92.226562 67.40625 92.078125 68.144531 92.078125 L 68.996094 92.078125 L 68.996094 91.675781 C 68.996094 91.367188 68.90625 91.125 68.722656 90.941406 C 68.539062 90.757812 68.269531 90.664062 67.910156 90.664062 C 67.597656 90.664062 67.335938 90.746094 67.121094 90.90625 C 66.910156 91.0625 66.804688 91.257812 66.804688 91.480469 L 65.917969 91.480469 C 65.917969 91.222656 66.007812 90.976562 66.191406 90.738281 C 66.375 90.496094 66.621094 90.308594 66.929688 90.164062 C 67.242188 90.027344 67.585938 89.957031 67.960938 89.957031 C 68.554688 89.957031 69.019531 90.105469 69.355469 90.40625 C 69.691406 90.699219 69.867188 91.105469 69.878906 91.625 L 69.878906 93.992188 C 69.878906 94.464844 69.9375 94.839844 70.058594 95.121094 Z M 67.679688 94.527344 C 67.953125 94.527344 68.214844 94.457031 68.460938 94.3125 C 68.710938 94.171875 68.886719 93.984375 68.996094 93.757812 L 68.996094 92.703125 L 68.308594 92.703125 C 67.230469 92.703125 66.691406 93.015625 66.691406 93.648438 C 66.691406 93.921875 66.785156 94.136719 66.972656 94.292969 C 67.152344 94.449219 67.390625 94.527344 67.679688 94.527344 Z M 71.253906 90.054688 L 72.085938 90.054688 L 72.117188 90.703125 C 72.507812 90.207031 73.023438 89.957031 73.65625 89.957031 C 74.742188 89.957031 75.292969 90.570312 75.304688 91.796875 L 75.304688 95.195312 L 74.421875 95.195312 L 74.421875 91.792969 C 74.417969 91.421875 74.335938 91.148438 74.164062 90.972656 C 74 90.792969 73.742188 90.707031 73.390625 90.707031 C 73.105469 90.707031 72.855469 90.78125 72.640625 90.929688 C 72.425781 91.085938 72.257812 91.285156 72.136719 91.53125 L 72.136719 95.195312 L 71.253906 95.195312 Z M 80.722656 95.195312 L 79.804688 95.195312 C 79.753906 95.097656 79.710938 94.917969 79.679688 94.65625 C 79.269531 95.078125 78.78125 95.289062 78.214844 95.289062 C 77.707031 95.289062 77.292969 95.148438 76.96875 94.859375 C 76.640625 94.574219 76.480469 94.210938 76.480469 93.773438 C 76.480469 93.234375 76.683594 92.820312 77.089844 92.523438 C 77.496094 92.226562 78.070312 92.078125 78.808594 92.078125 L 79.664062 92.078125 L 79.664062 91.675781 C 79.664062 91.367188 79.574219 91.125 79.386719 90.941406 C 79.203125 90.757812 78.933594 90.664062 78.578125 90.664062 C 78.261719 90.664062 77.996094 90.746094 77.785156 90.90625 C 77.574219 91.0625 77.46875 91.257812 77.46875 91.480469 L 76.585938 91.480469 C 76.585938 91.222656 76.675781 90.976562 76.855469 90.738281 C 77.039062 90.496094 77.285156 90.308594 77.597656 90.164062 C 77.914062 90.027344 78.257812 89.957031 78.628906 89.957031 C 79.21875 89.957031 79.683594 90.105469 80.019531 90.40625 C 80.355469 90.699219 80.53125 91.105469 80.542969 91.625 L 80.542969 93.992188 C 80.542969 94.464844 80.601562 94.839844 80.722656 95.121094 Z M 78.34375 94.527344 C 78.621094 94.527344 78.882812 94.457031 79.125 94.3125 C 79.375 94.171875 79.554688 93.984375 79.664062 93.757812 L 79.664062 92.703125 L 78.976562 92.703125 C 77.898438 92.703125 77.359375 93.015625 77.359375 93.648438 C 77.359375 93.921875 77.453125 94.136719 77.636719 94.292969 C 77.816406 94.449219 78.054688 94.527344 78.34375 94.527344 Z M 82.878906 90.054688 L 82.878906 95.195312 L 81.996094 95.195312 L 81.996094 90.054688 Z M 81.925781 88.6875 C 81.925781 88.546875 81.972656 88.425781 82.058594 88.328125 C 82.144531 88.230469 82.273438 88.179688 82.445312 88.179688 C 82.617188 88.179688 82.746094 88.230469 82.835938 88.328125 C 82.921875 88.425781 82.96875 88.546875 82.96875 88.6875 C 82.96875 88.832031 82.921875 88.953125 82.835938 89.046875 C 82.746094 89.140625 82.617188 89.1875 82.445312 89.1875 C 82.273438 89.1875 82.144531 89.140625 82.058594 89.046875 C 81.972656 88.953125 81.925781 88.832031 81.925781 88.6875 Z M 87.28125 93.835938 C 87.28125 93.59375 87.191406 93.410156 87.011719 93.28125 C 86.832031 93.148438 86.519531 93.035156 86.074219 92.941406 C 85.628906 92.847656 85.273438 92.730469 85.015625 92.59375 C 84.753906 92.460938 84.558594 92.304688 84.4375 92.121094 C 84.308594 91.9375 84.246094 91.71875 84.246094 91.46875 C 84.246094 91.046875 84.425781 90.6875 84.78125 90.394531 C 85.136719 90.105469 85.59375 89.957031 86.148438 89.957031 C 86.730469 89.957031 87.207031 90.109375 87.570312 90.410156 C 87.929688 90.710938 88.113281 91.09375 88.113281 91.5625 L 87.226562 91.5625 C 87.226562 91.324219 87.125 91.117188 86.921875 90.945312 C 86.714844 90.769531 86.457031 90.679688 86.148438 90.679688 C 85.828125 90.679688 85.578125 90.75 85.394531 90.890625 C 85.214844 91.03125 85.125 91.210938 85.125 91.4375 C 85.125 91.648438 85.210938 91.808594 85.378906 91.917969 C 85.546875 92.023438 85.851562 92.128906 86.289062 92.226562 C 86.726562 92.324219 87.082031 92.441406 87.355469 92.578125 C 87.628906 92.714844 87.828125 92.875 87.960938 93.070312 C 88.09375 93.261719 88.15625 93.496094 88.15625 93.773438 C 88.15625 94.230469 87.972656 94.597656 87.609375 94.875 C 87.238281 95.152344 86.761719 95.289062 86.175781 95.289062 C 85.765625 95.289062 85.402344 95.21875 85.082031 95.074219 C 84.765625 94.929688 84.519531 94.726562 84.339844 94.460938 C 84.160156 94.199219 84.074219 93.917969 84.074219 93.613281 L 84.949219 93.613281 C 84.96875 93.90625 85.085938 94.140625 85.304688 94.316406 C 85.523438 94.488281 85.816406 94.574219 86.175781 94.574219 C 86.507812 94.574219 86.773438 94.507812 86.976562 94.375 C 87.179688 94.238281 87.28125 94.058594 87.28125 93.835938 Z M 87.28125 93.835938 "/>
</g>
</svg>
